
<svg xmlns="http://www.w3.org/2000/svg" width="20" height="20" viewBox="0 0 20 20" fill="none">
  <path d="M10.0007 0C7.53895 0.00744699 5.16597 0.92045 3.33407 2.565V0H1.6674V4.28583C1.66784 4.69612 1.83102 5.08948 2.12114 5.37959C2.41126 5.66971 2.80461 5.83289 3.2149 5.83333H7.50073V4.16667H4.06657C5.42095 2.79464 7.20974 1.9355 9.12729 1.73602C11.0448 1.53655 12.9722 2.00913 14.5799 3.07301C16.1877 4.1369 17.3762 5.72606 17.9423 7.56898C18.5084 9.41191 18.4169 11.3942 17.6836 13.1772C16.9503 14.9602 15.6206 16.4332 13.9217 17.3446C12.2228 18.256 10.2602 18.5491 8.36913 18.174C6.47808 17.7988 4.77597 16.7787 3.55363 15.2878C2.33129 13.797 1.66457 11.9279 1.6674 10H0.000732422C0.000732422 11.9778 0.587222 13.9112 1.68604 15.5557C2.78485 17.2002 4.34664 18.4819 6.1739 19.2388C8.00116 19.9957 10.0118 20.1937 11.9516 19.8078C13.8914 19.422 15.6733 18.4696 17.0718 17.0711C18.4703 15.6725 19.4227 13.8907 19.8086 11.9509C20.1944 10.0111 19.9964 8.00043 19.2395 6.17316C18.4826 4.3459 17.2009 2.78412 15.5564 1.6853C13.9119 0.58649 11.9785 0 10.0007 0Z"/>
  <path d="M9.16748 5.83333V10.345L11.9116 13.0892L13.09 11.9108L10.8341 9.65499V5.83333H9.16748Z"/>
</svg>
