<svg xmlns="http://www.w3.org/2000/svg" width="16" height="20" viewBox="0 0 16 20" fill="none">
  <path d="M10.8875 0H0.5225C0.233928 0 0 0.233929 0 0.687857V19.6429C0 19.7661 0.233928 20 0.5225 20H14.8346C15.1232 20 15.3571 19.7661 15.3571 19.6429V4.635C15.3571 4.38643 15.3239 4.30643 15.2654 4.2475L11.1096 0.0917857C11.0507 0.0332143 10.9707 0 10.8875 0Z" fill="#E9E9E0"/>
  <path d="M11.0715 0.0539551V4.28574H15.3033L11.0715 0.0539551Z" fill="#D9D7CA"/>
  <path d="M4.6479 11.9014C4.52362 11.9014 4.40433 11.861 4.30255 11.785C3.93076 11.506 3.88076 11.1957 3.90433 10.9842C3.96933 10.4028 4.68826 9.79424 6.04183 9.17424C6.57897 7.9971 7.09005 6.54674 7.39469 5.33496C7.03826 4.55924 6.69183 3.55282 6.94433 2.96246C7.0329 2.75567 7.14326 2.5971 7.34933 2.52853C7.43076 2.50139 7.63647 2.4671 7.71219 2.4671C7.89219 2.4671 8.0504 2.69889 8.16255 2.84174C8.2679 2.97603 8.50683 3.26067 8.02933 5.27103C8.51076 6.26532 9.1929 7.27817 9.84647 7.97174C10.3147 7.8871 10.7175 7.84389 11.0458 7.84389C11.605 7.84389 11.944 7.97425 12.0822 8.24282C12.1965 8.46496 12.1497 8.7246 11.9429 9.01425C11.744 9.29246 11.4697 9.4396 11.15 9.4396C10.7158 9.4396 10.21 9.16532 9.64612 8.62353C8.6329 8.83532 7.44969 9.21317 6.49326 9.63139C6.19469 10.265 5.90862 10.7753 5.64219 11.1496C5.27612 11.6621 4.9604 11.9014 4.6479 11.9014ZM5.59862 10.0707C4.8354 10.4996 4.52433 10.8521 4.50183 11.0507C4.49826 11.0835 4.48862 11.17 4.65576 11.2978C4.70897 11.281 5.01969 11.1392 5.59862 10.0707ZM10.469 8.48424C10.76 8.70817 10.8311 8.82139 11.0215 8.82139C11.105 8.82139 11.3433 8.81782 11.4536 8.66389C11.5068 8.58925 11.5275 8.54139 11.5358 8.51567C11.4918 8.49246 11.4336 8.44532 11.1161 8.44532C10.9358 8.44567 10.709 8.45353 10.469 8.48424ZM7.80112 6.13353C7.54576 7.0171 7.20862 7.97103 6.84612 8.83496C7.59255 8.54532 8.40398 8.29246 9.16612 8.11353C8.68398 7.55353 8.20219 6.85424 7.80112 6.13353ZM7.58433 3.11139C7.54933 3.12317 7.10933 3.73889 7.61862 4.25996C7.95755 3.5046 7.59969 3.10639 7.58433 3.11139Z" fill="#CC4B4C"/>
  <path d="M14.8346 20H0.5225C0.233928 20 0 19.7661 0 19.4775V13.9286H15.3571V19.4775C15.3571 19.7661 15.1232 20 14.8346 20Z" fill="#CC4B4C"/>
  <path d="M3.88734 18.9285H3.30127V15.33H4.33627C4.48913 15.33 4.64056 15.3542 4.7902 15.4032C4.93984 15.4521 5.07413 15.5253 5.19306 15.6228C5.31198 15.7203 5.40805 15.8385 5.48127 15.9767C5.55448 16.115 5.59127 16.2703 5.59127 16.4432C5.59127 16.6257 5.5602 16.7907 5.49841 16.9389C5.43663 17.0871 5.3502 17.2117 5.23948 17.3125C5.12877 17.4132 4.9952 17.4914 4.83913 17.5467C4.68305 17.6021 4.5102 17.6296 4.32163 17.6296H3.88698L3.88734 18.9285ZM3.88734 15.7742V17.2H4.42448C4.49591 17.2 4.56663 17.1878 4.63698 17.1632C4.70698 17.1389 4.77127 17.0989 4.82984 17.0435C4.88841 16.9882 4.93555 16.911 4.97127 16.8117C5.00698 16.7125 5.02484 16.5896 5.02484 16.4432C5.02484 16.3846 5.01663 16.3167 5.00056 16.2407C4.98413 16.1642 4.95091 16.091 4.90056 16.021C4.84984 15.951 4.77913 15.8925 4.68806 15.8453C4.59698 15.7982 4.47627 15.7746 4.32663 15.7746L3.88734 15.7742Z" fill="white"/>
  <path d="M9.18539 17.0292C9.18539 17.3253 9.1536 17.5785 9.09003 17.7885C9.02646 17.9985 8.9461 18.1742 8.84824 18.316C8.75039 18.4578 8.64074 18.5692 8.5186 18.6507C8.39646 18.7321 8.2786 18.7928 8.16467 18.8339C8.05074 18.8746 7.94646 18.9007 7.85217 18.9121C7.75789 18.9228 7.68789 18.9285 7.64217 18.9285H6.28003V15.33H7.36396C7.66681 15.33 7.93289 15.3782 8.16217 15.4739C8.39146 15.5696 8.58217 15.6978 8.7336 15.8571C8.88503 16.0164 8.99789 16.1982 9.07289 16.4014C9.14789 16.605 9.18539 16.8142 9.18539 17.0292ZM7.44717 18.4989C7.84431 18.4989 8.13074 18.3721 8.30646 18.1182C8.48217 17.8642 8.57003 17.4964 8.57003 17.0146C8.57003 16.865 8.55217 16.7167 8.51646 16.5703C8.48039 16.4239 8.41146 16.2914 8.30896 16.1725C8.20646 16.0535 8.06717 15.9575 7.89146 15.8842C7.71574 15.811 7.48789 15.7742 7.20789 15.7742H6.8661V18.4989H7.44717Z" fill="white"/>
  <path d="M10.6306 15.7742V16.9071H12.1346V17.3075H10.6306V18.9285H10.0349V15.33H12.2856V15.7742H10.6306Z" fill="white"/>
</svg>
