<svg width="177" height="47" viewBox="0 0 177 47" fill="none" xmlns="http://www.w3.org/2000/svg">
<path d="M27.6859 23.1491C26.8677 21.6218 26.115 20.0509 25.5041 18.48C23.2076 13.1522 21.7361 7.50559 21.1405 1.73455C21.1239 1.52041 21.027 1.32043 20.8692 1.17475C20.7114 1.02907 20.5043 0.94846 20.2895 0.9491H6.915C6.70035 0.95141 6.49451 1.03476 6.33873 1.18245C6.18295 1.33013 6.08874 1.53124 6.075 1.74546C5.73285 7.49498 4.45803 13.1506 2.30045 18.4909C1.65967 20.0791 0.931283 21.6306 0.118638 23.1382C0.040956 23.2705 0 23.4211 0 23.5745C0 23.7279 0.040956 23.8786 0.118638 24.0109C0.931083 25.3687 1.65972 26.775 2.30045 28.2218C5.32227 34.9636 5.74773 41.2254 6.06409 45.8073C6.07784 46.0215 6.17204 46.2226 6.32782 46.3703C6.4836 46.5179 6.68944 46.6013 6.90409 46.6036H20.3223C20.537 46.6042 20.7441 46.5236 20.9019 46.378C21.0598 46.2323 21.1567 46.0323 21.1732 45.8182C21.5832 39.7455 23.0603 33.7926 25.5368 28.2327C26.1884 26.7876 26.9167 25.3783 27.7186 24.0109C27.7883 23.8767 27.8219 23.7267 27.8162 23.5757C27.8104 23.4246 27.7655 23.2776 27.6859 23.1491ZM23.9223 27.5127C21.4762 33.0141 19.9787 38.8898 19.4932 44.8909H7.71136C7.48021 38.913 6.17196 33.0259 3.84954 27.5127C3.22824 26.1574 2.53639 24.8356 1.77682 23.5527C2.5363 22.1334 3.22443 20.677 3.83863 19.1891C5.96849 13.9278 7.26408 8.36633 7.67863 2.70546H19.5041C20.1699 8.3826 21.6391 13.9363 23.8677 19.2C24.4895 20.6618 25.1768 22.1345 25.9404 23.5636C25.202 24.8416 24.5284 26.156 23.9223 27.5018V27.5127Z" fill="#00854A"/>
<path d="M22.0691 27.1092C22.5054 25.8873 23.1055 24.6437 23.6945 23.5528C23.5418 23.2364 23.3673 22.9092 23.1927 22.571C22.6564 21.5927 22.1862 20.5795 21.7855 19.5383C20.1277 15.0571 18.9857 10.4016 18.3818 5.66187L9 42.9819H18.24C18.7591 37.5365 20.0483 32.1923 22.0691 27.1092Z" fill="#00854A"/>
<path d="M53.3229 18.611H51.1411L44.0392 5.00732V18.611H41.8574V0.970947H44.0392L51.1192 14.6183V0.970947H53.3011L53.3229 18.611Z" fill="#4D4D4F"/>
<path d="M63.6093 18.6109C63.5283 18.4069 63.4698 18.1948 63.4347 17.9781C63.4347 17.7272 63.3584 17.4654 63.3365 17.1818C63.1801 17.4101 63.001 17.6221 62.802 17.8145C62.6052 18.0217 62.3813 18.2015 62.1366 18.3491C61.8863 18.503 61.6191 18.6275 61.3402 18.72C61.043 18.8092 60.7341 18.8534 60.4238 18.8509C59.8944 18.8535 59.368 18.7725 58.8638 18.6109C58.418 18.4588 58.0117 18.2091 57.6747 17.88C57.3366 17.5439 57.076 17.1381 56.9111 16.6909C56.7273 16.1578 56.6387 15.5965 56.6493 15.0327C56.6429 14.435 56.7541 13.842 56.9765 13.2872C57.187 12.7588 57.5198 12.2877 57.9475 11.9127C58.4242 11.4923 58.9861 11.1797 59.5947 10.9963C60.2985 10.7645 61.0356 10.6502 61.7765 10.6581H63.2602V9.26179C63.3151 8.65968 63.1309 8.06013 62.7475 7.5927C62.298 7.23295 61.7287 7.05747 61.1547 7.10179C60.838 7.09626 60.5232 7.15182 60.2275 7.26543C59.971 7.36241 59.7371 7.51092 59.5402 7.70179C59.3541 7.88569 59.2124 8.10952 59.1256 8.35634C59.0248 8.60211 58.9729 8.86522 58.9729 9.13088H56.7911C56.7929 8.64905 56.897 8.1731 57.0965 7.73452C57.3044 7.26475 57.605 6.84176 57.9802 6.49088C58.3855 6.10786 58.8592 5.80441 59.3766 5.59634C59.9628 5.36327 60.5894 5.24834 61.2202 5.25815C61.7839 5.25366 62.3456 5.32708 62.8893 5.47634C63.3711 5.61129 63.8179 5.84953 64.1984 6.17452C64.5763 6.52034 64.8677 6.95005 65.0493 7.42906C65.271 8.02522 65.3747 8.65878 65.3547 9.29452V15.7527C65.3547 15.9709 65.3547 16.2 65.3547 16.44C65.3547 16.68 65.3547 16.92 65.4311 17.1491C65.5075 17.3781 65.5184 17.6072 65.562 17.8254C65.6126 18.0251 65.6746 18.2218 65.7475 18.4145V18.6109H63.6093ZM60.7511 16.8981C61.0399 16.9008 61.3273 16.8566 61.602 16.7672C61.8592 16.6816 62.1047 16.5643 62.3329 16.4181C62.5305 16.2729 62.71 16.1044 62.8675 15.9163C63.026 15.7479 63.1584 15.5567 63.2602 15.3491V12.2509H62.1693C61.6987 12.2456 61.2295 12.3006 60.7729 12.4145C60.3843 12.5158 60.0155 12.6817 59.682 12.9054C59.3954 13.1122 59.1633 13.3855 59.0056 13.7018C58.8377 14.0403 58.7553 14.4149 58.7656 14.7927C58.7597 15.1276 58.8001 15.4616 58.8856 15.7854C58.9548 16.0303 59.0821 16.2548 59.2566 16.44C59.4249 16.6117 59.6356 16.7359 59.8675 16.8C60.1552 16.8779 60.4533 16.911 60.7511 16.8981Z" fill="#4D4D4F"/>
<path d="M71.595 2.32361V5.49816H73.5695V7.18907H71.595V15.3163C71.5871 15.5924 71.6202 15.8681 71.6932 16.1345C71.7405 16.311 71.8262 16.4749 71.9441 16.6145C72.0401 16.721 72.1653 16.7968 72.3041 16.8327C72.4414 16.8547 72.5813 16.8547 72.7186 16.8327C72.878 16.8523 73.0392 16.8523 73.1986 16.8327L73.5805 16.7454V18.5672L73.0023 18.72C72.7009 18.7825 72.3936 18.8118 72.0859 18.8072C71.7471 18.8105 71.4106 18.7513 71.0932 18.6327C70.7722 18.5082 70.4872 18.3058 70.2641 18.0436C70.0009 17.7236 69.8077 17.3519 69.6968 16.9527C69.5416 16.414 69.4681 15.855 69.4786 15.2945V7.18907H67.4277V5.49816H69.4132V2.32361H71.595Z" fill="#4D4D4F"/>
<path d="M76.1234 2.01818C76.1175 1.68681 76.2253 1.36342 76.4288 1.10182C76.5484 0.982081 76.6904 0.887091 76.8467 0.822281C77.003 0.757471 77.1705 0.724121 77.3397 0.724121C77.5089 0.724121 77.6765 0.757471 77.8328 0.822281C77.9891 0.887091 78.1311 0.982081 78.2506 1.10182C78.4605 1.35634 78.5727 1.67742 78.567 2.00727C78.5765 2.3392 78.4683 2.66379 78.2615 2.92364C78.1435 3.04886 77.999 3.14616 77.8386 3.20844C77.6782 3.27072 77.5059 3.29641 77.3343 3.28364C77.1658 3.29792 76.9962 3.27283 76.8391 3.21035C76.682 3.14787 76.5415 3.04972 76.4288 2.92364C76.2245 2.66669 76.1164 2.34639 76.1234 2.01818ZM78.3925 18.6109H76.2106V5.52H78.3925V18.6109Z" fill="#4D4D4F"/>
<path d="M81.3158 11.4436C81.2993 10.53 81.432 9.61987 81.7085 8.74904C81.9424 8.04025 82.313 7.38422 82.7995 6.81813C83.2373 6.3111 83.786 5.91169 84.4031 5.65086C85.0274 5.38585 85.6995 5.25217 86.3776 5.25813C87.0627 5.25348 87.7417 5.38705 88.374 5.65086C88.9931 5.91362 89.545 6.3126 89.9886 6.81813C90.475 7.38422 90.8456 8.04025 91.0795 8.74904C91.3561 9.61987 91.4887 10.53 91.4722 11.4436V12.6436C91.4879 13.5535 91.3553 14.46 91.0795 15.3272C90.8456 16.036 90.475 16.6921 89.9886 17.2582C89.5495 17.7612 89.0009 18.1568 88.3849 18.4145C87.7568 18.6795 87.0811 18.8132 86.3995 18.8072C85.7144 18.8119 85.0354 18.6783 84.4031 18.4145C83.7858 18.1593 83.2366 17.7633 82.7995 17.2582C82.313 16.6921 81.9424 16.036 81.7085 15.3272C81.4327 14.46 81.3001 13.5535 81.3158 12.6436V11.4436ZM83.4976 12.6872C83.4877 13.3274 83.5648 13.966 83.7267 14.5854C83.8435 15.0707 84.0508 15.5296 84.3376 15.9382C84.5773 16.2779 84.8954 16.5548 85.2649 16.7454C85.6259 16.9301 86.0267 17.0238 86.4322 17.0182C88.374 17.0182 89.3449 15.5636 89.3449 12.6545V11.4436C89.3581 10.8075 89.2847 10.1726 89.1267 9.55628C88.9985 9.07311 88.7881 8.61555 88.5049 8.20359C88.2686 7.85529 87.9501 7.57055 87.5776 7.37449C87.2162 7.19102 86.8157 7.09747 86.4104 7.10177C86.001 7.09449 85.5964 7.19065 85.2341 7.38135C84.8717 7.57205 84.5634 7.8511 84.3376 8.19268C84.0528 8.60232 83.8457 9.06086 83.7267 9.54541C83.5647 10.1611 83.4876 10.7961 83.4976 11.4327V12.6872Z" fill="#4D4D4F"/>
<path d="M96.2397 5.49816V6.91634C96.6132 6.41056 97.0937 5.99338 97.647 5.69452C98.1924 5.39872 98.8048 5.24843 99.4251 5.25816C99.9217 5.25034 100.414 5.33927 100.876 5.51998C101.307 5.69551 101.683 5.98151 101.967 6.34907C102.296 6.79421 102.536 7.2977 102.676 7.83272C102.851 8.54643 102.932 9.2799 102.916 10.0145V18.6109H100.735V9.9927C100.802 9.22929 100.622 8.46449 100.222 7.81089C100.051 7.61993 99.8427 7.46616 99.6097 7.35918C99.3771 7.2522 99.1249 7.19429 98.8688 7.18907C98.3436 7.18945 97.8362 7.37926 97.4397 7.72363C96.9936 8.10273 96.6425 8.58092 96.4142 9.11998V18.6436H94.2324V5.55271L96.2397 5.49816Z" fill="#4D4D4F"/>
<path d="M112.963 18.6109C112.882 18.4069 112.824 18.1948 112.789 17.9781C112.789 17.7272 112.712 17.4654 112.69 17.1818C112.534 17.4101 112.355 17.6221 112.156 17.8145C111.959 18.0217 111.735 18.2015 111.49 18.3491C111.24 18.503 110.973 18.6275 110.694 18.72C110.397 18.8092 110.088 18.8534 109.778 18.8509C109.248 18.8535 108.722 18.7725 108.218 18.6109C107.772 18.4588 107.366 18.2091 107.029 17.88C106.69 17.5439 106.43 17.1381 106.265 16.6909C106.081 16.1578 105.993 15.5965 106.003 15.0327C105.997 14.435 106.108 13.842 106.33 13.2872C106.541 12.7588 106.874 12.2877 107.301 11.9127C107.765 11.4977 108.312 11.1854 108.905 10.9963C109.633 10.756 110.397 10.6417 111.163 10.6581H112.647V9.26179C112.702 8.65968 112.517 8.06013 112.134 7.5927C111.685 7.23295 111.115 7.05747 110.541 7.10179C110.225 7.09626 109.91 7.15182 109.614 7.26543C109.358 7.36241 109.124 7.51092 108.927 7.70179C108.741 7.88569 108.599 8.10952 108.512 8.35634C108.411 8.60211 108.359 8.86522 108.359 9.13088H106.178C106.186 8.64746 106.298 8.17144 106.505 7.73452C106.713 7.26475 107.013 6.84176 107.389 6.49088C107.794 6.10786 108.268 5.80441 108.785 5.59634C109.371 5.36327 109.998 5.24834 110.629 5.25815C111.192 5.25366 111.754 5.32708 112.298 5.47634C112.78 5.61129 113.226 5.84953 113.607 6.17452C113.985 6.52034 114.276 6.95005 114.458 7.42906C114.679 8.02522 114.783 8.65878 114.763 9.29452V15.7527C114.763 15.9709 114.763 16.2 114.763 16.44C114.763 16.68 114.763 16.92 114.839 17.1491C114.916 17.3781 114.927 17.6072 114.97 17.8254C115.021 18.0251 115.083 18.2218 115.156 18.4145V18.6109H112.963ZM110.105 16.8981C110.394 16.8998 110.681 16.8556 110.956 16.7672C111.211 16.6842 111.453 16.5667 111.676 16.4181C111.887 16.2819 112.081 16.1207 112.254 15.9381C112.409 15.767 112.541 15.5763 112.647 15.3709V12.2509H111.556C111.085 12.2456 110.616 12.3006 110.159 12.4145C109.771 12.5158 109.402 12.6817 109.069 12.9054C108.782 13.1122 108.55 13.3855 108.392 13.7018C108.224 14.0403 108.142 14.4149 108.152 14.7927C108.146 15.1276 108.187 15.4616 108.272 15.7854C108.341 16.0303 108.469 16.2548 108.643 16.44C108.811 16.6117 109.022 16.7359 109.254 16.8C109.531 16.8746 109.818 16.9077 110.105 16.8981Z" fill="#4D4D4F"/>
<path d="M120.415 18.6109H118.233V0H120.415V18.6109Z" fill="#4D4D4F"/>
<path d="M129.764 18.611V0.970957H134.793C135.483 0.959287 136.171 1.05122 136.833 1.24369C137.404 1.39794 137.929 1.69014 138.36 2.0946C138.788 2.4951 139.114 2.99274 139.309 3.54551C139.543 4.22981 139.654 4.94996 139.637 5.67278C139.649 6.44387 139.436 7.20183 139.026 7.8546C138.616 8.50098 138.039 9.02484 137.357 9.37096C137.754 9.49772 138.124 9.69747 138.448 9.96007C138.777 10.2298 139.058 10.5546 139.277 10.9201C139.505 11.2995 139.674 11.7115 139.779 12.1419C140.063 13.3422 139.999 14.5988 139.593 15.7637C139.384 16.3613 139.045 16.9051 138.6 17.3564C138.157 17.7971 137.62 18.1327 137.029 18.3383C136.37 18.564 135.676 18.6747 134.979 18.6655L129.764 18.611ZM131.946 8.48733H134.869C135.22 8.48887 135.567 8.42601 135.895 8.30187C136.203 8.18006 136.479 7.9898 136.702 7.74551C136.936 7.48462 137.118 7.18085 137.237 6.85096C137.372 6.46944 137.439 6.06676 137.433 5.66187C137.5 4.89971 137.27 4.14109 136.789 3.54551C136.525 3.30564 136.215 3.12276 135.877 3.00827C135.539 2.89378 135.181 2.85013 134.826 2.88005H132.022L131.946 8.48733ZM131.946 10.3528V16.7019H134.968C135.367 16.7074 135.764 16.6332 136.135 16.4837C136.465 16.3378 136.759 16.1219 136.997 15.851C137.236 15.5571 137.418 15.2202 137.531 14.8583C137.655 14.4294 137.713 13.9845 137.706 13.5383C137.713 13.0935 137.662 12.6496 137.553 12.2183C137.471 11.8538 137.311 11.5114 137.084 11.2146C136.863 10.9398 136.578 10.7227 136.255 10.5819C135.876 10.4193 135.467 10.3411 135.055 10.3528H131.946Z" fill="#4D4D4F"/>
<path d="M149.749 18.6109C149.664 18.4075 149.601 18.1953 149.563 17.9781C149.563 17.7272 149.487 17.4654 149.465 17.1818C149.309 17.4075 149.134 17.6192 148.941 17.8145C148.742 18.0192 148.519 18.1988 148.276 18.3491C148.022 18.5031 147.751 18.6275 147.469 18.72C147.175 18.8085 146.87 18.8526 146.563 18.8509C146.034 18.8552 145.507 18.7741 145.003 18.6109C144.554 18.4589 144.144 18.2093 143.803 17.88C143.469 17.5429 143.212 17.1371 143.051 16.6909C142.669 15.5851 142.688 14.3802 143.105 13.2872C143.319 12.7609 143.652 12.2907 144.076 11.9127C144.542 11.495 145.093 11.1824 145.69 10.9963C146.415 10.7568 147.175 10.6425 147.938 10.6582H149.432V9.26177C149.494 8.96804 149.483 8.66362 149.4 8.37525C149.316 8.08688 149.163 7.82339 148.954 7.60793C148.745 7.39247 148.487 7.23165 148.201 7.13958C147.915 7.04752 147.611 7.02704 147.316 7.07994C147.003 7.07444 146.692 7.13002 146.4 7.24357C146.143 7.34056 145.909 7.48907 145.712 7.67994C145.526 7.86609 145.382 8.08903 145.287 8.33448C145.19 8.58101 145.142 8.84409 145.145 9.10903H142.963C142.965 8.6272 143.069 8.15125 143.269 7.71267C143.477 7.2429 143.777 6.81991 144.152 6.46903C144.562 6.08588 145.039 5.78251 145.56 5.57449C146.145 5.33945 146.772 5.22445 147.403 5.2363C147.963 5.23253 148.521 5.30595 149.061 5.45448C149.543 5.58944 149.99 5.82768 150.37 6.15267C150.753 6.49483 151.045 6.92564 151.221 7.40721C151.443 8.00337 151.547 8.63693 151.527 9.27268V15.7309C151.527 15.9491 151.527 16.1781 151.527 16.4181C151.527 16.6581 151.527 16.8982 151.614 17.1272C151.645 17.355 151.689 17.5808 151.745 17.8036C151.792 18.0031 151.85 18.1998 151.92 18.3927V18.5891L149.749 18.6109ZM146.869 16.8982C147.158 16.9008 147.445 16.8566 147.72 16.7672C147.978 16.6842 148.224 16.5668 148.45 16.4181C148.668 16.2734 148.87 16.1052 149.05 15.9163C149.206 15.7452 149.338 15.5545 149.443 15.3491V12.2509H148.352C147.882 12.2456 147.413 12.3006 146.956 12.4145C146.568 12.518 146.2 12.6838 145.865 12.9054C145.58 13.1144 145.349 13.3871 145.189 13.7018C145.03 14.043 144.951 14.4163 144.96 14.7927C144.949 15.1278 144.989 15.4626 145.08 15.7854C145.141 16.0311 145.265 16.2566 145.44 16.44C145.611 16.6072 145.821 16.7307 146.05 16.8C146.317 16.8707 146.593 16.9038 146.869 16.8982Z" fill="#4D4D4F"/>
<path d="M156.905 5.49817L156.959 6.91635C157.333 6.41057 157.814 5.99339 158.367 5.69453C158.913 5.4001 159.525 5.2499 160.145 5.25817C160.644 5.25141 161.141 5.34028 161.607 5.51999C162.036 5.69686 162.412 5.98261 162.698 6.34908C163.03 6.79177 163.271 7.29608 163.407 7.83271C163.586 8.54585 163.67 9.27941 163.658 10.0145V18.6109H161.476V9.9927C161.543 9.2293 161.363 8.4645 160.963 7.81089C160.774 7.58813 160.536 7.41285 160.266 7.29916C159.997 7.18547 159.705 7.13655 159.414 7.15635C158.889 7.15673 158.381 7.34653 157.985 7.69089C157.542 8.07294 157.191 8.55034 156.959 9.08726V18.6109H154.778V5.51999L156.905 5.49817Z" fill="#4D4D4F"/>
<path d="M170.181 12.6436L169.09 13.9527V18.6436H166.908V0H169.09V11.1272L170.039 9.80723L173.17 5.49818H175.734L171.567 10.9527L176.279 18.5891H173.781L170.181 12.6436Z" fill="#4D4D4F"/>
<path d="M42.1415 38.2473C42.1285 37.3332 42.2648 36.423 42.5451 35.5528C42.7727 34.8412 43.144 34.184 43.636 33.6219C44.0739 33.1148 44.6226 32.7154 45.2396 32.4546C45.8615 32.1809 46.5348 32.0433 47.2142 32.051C47.9006 32.0445 48.5806 32.182 49.2106 32.4546C49.8473 32.7081 50.4153 33.108 50.8687 33.6219C51.3608 34.184 51.7321 34.8412 51.9596 35.5528C52.2362 36.4236 52.3689 37.3338 52.3524 38.2473V39.4801C52.3681 40.39 52.2354 41.2964 51.9596 42.1637C51.7321 42.8753 51.3608 43.5325 50.8687 44.0946C50.4309 44.6016 49.8822 45.0011 49.2651 45.2619C48.6362 45.5231 47.9606 45.6531 47.2796 45.6437C46.5953 45.6521 45.9163 45.5223 45.2833 45.2619C44.6662 45.0011 44.1175 44.6016 43.6797 44.0946C43.1876 43.5325 42.8163 42.8753 42.5887 42.1637C42.2944 41.2995 42.1434 40.393 42.1415 39.4801V38.2473ZM44.3233 39.4801C44.3128 40.1239 44.3898 40.7661 44.5524 41.3892C44.6714 41.8703 44.8786 42.3253 45.1633 42.731C45.4059 43.0708 45.7231 43.3507 46.0906 43.5492C46.4535 43.7287 46.8529 43.8221 47.2578 43.8219C49.1997 43.8219 50.1815 42.371 50.1815 39.4582V38.2473C50.1922 37.6107 50.1151 36.9756 49.9524 36.3601C49.8253 35.8731 49.6149 35.4117 49.3306 34.9964C49.0906 34.6541 48.7728 34.3737 48.4033 34.1782C48.0426 33.9914 47.6422 33.8941 47.236 33.8946C46.8333 33.8941 46.4365 33.9915 46.0797 34.1782C45.7155 34.3771 45.402 34.657 45.1633 34.9964C44.8785 35.4101 44.6715 35.8722 44.5524 36.3601C44.3896 36.9756 44.3126 37.6107 44.3233 38.2473V39.4801Z" fill="#4D4D4F"/>
<path d="M55.9959 45.371V34.0255H54.2832V32.2801H55.9959V30.9164C55.9809 30.2702 56.0693 29.6257 56.2578 29.0074C56.4134 28.502 56.6653 28.0316 56.9996 27.6219C57.3304 27.2697 57.737 26.9974 58.1887 26.8255C58.6896 26.6325 59.2227 26.5362 59.7596 26.5419C60.2006 26.5413 60.6388 26.6113 61.0577 26.7492L60.9487 28.571L60.4796 28.4837H59.9668C59.7069 28.4715 59.448 28.5228 59.2123 28.633C58.9767 28.7432 58.7713 28.9092 58.6141 29.1164C58.2641 29.657 58.0959 30.2954 58.1341 30.9383V32.2801H60.3814V34.0255H58.1341V45.371H55.9959Z" fill="#4D4D4F"/>
<path d="M79.3948 27.7637V40.2001C79.4227 41.062 79.2703 41.9203 78.9475 42.7201C78.6809 43.3674 78.2706 43.9457 77.7475 44.411C77.2467 44.8459 76.6592 45.1694 76.0239 45.3601C75.3541 45.5549 74.6595 45.6504 73.962 45.6437C73.2247 45.6588 72.4892 45.5632 71.7802 45.3601C71.1298 45.1758 70.5319 44.8407 70.0353 44.382C69.5387 43.9233 69.1573 43.3539 68.922 42.7201C68.6177 41.9157 68.4732 41.0597 68.4966 40.2001V27.7637H70.6784V40.2001C70.6633 40.7795 70.7406 41.3577 70.9075 41.9128C71.0338 42.3217 71.2543 42.6954 71.5511 43.0037C71.8306 43.2816 72.1759 43.4843 72.5548 43.5928C72.9853 43.707 73.4294 43.762 73.8748 43.7564C74.3201 43.7612 74.7641 43.7062 75.1948 43.5928C75.5768 43.4842 75.9256 43.2817 76.2093 43.0037C76.5062 42.6954 76.7266 42.3217 76.853 41.9128C77.0198 41.3577 77.0972 40.7795 77.082 40.2001V27.7637H79.3948Z" fill="#4D4D4F"/>
<path d="M85.7766 39.4036L84.6857 40.7127V45.3709H82.5039V26.8254H84.6857V37.9527L85.6457 36.6327L88.7548 32.28H91.3184L87.1512 37.7345L91.8639 45.3709H89.3657L85.7766 39.4036Z" fill="#4D4D4F"/>
<path d="M99.1088 34.3091L98.6398 34.2436H98.1379C97.6169 34.2227 97.107 34.3978 96.7088 34.7345C96.3066 35.0899 96.0056 35.5453 95.8361 36.0545V45.3709H93.6543V32.28H95.7379V33.6109C95.9763 33.1515 96.3203 32.7552 96.7416 32.4545C97.16 32.1632 97.661 32.014 98.1707 32.0291H98.3998H98.6398H98.8688L99.0216 32.0836L99.1088 34.3091Z" fill="#4D4D4F"/>
<path d="M107.509 45.3709C107.425 45.1719 107.366 44.963 107.335 44.7491C107.28 44.4827 107.244 44.213 107.226 43.9418C107.07 44.1709 106.895 44.3863 106.702 44.5854C106.503 44.7901 106.279 44.9697 106.036 45.12C105.784 45.2749 105.513 45.3959 105.229 45.48C104.936 45.5685 104.63 45.6126 104.324 45.6109C103.794 45.6206 103.266 45.5394 102.764 45.3709C102.317 45.2187 101.908 44.9732 101.564 44.6509C101.229 44.3077 100.969 43.8992 100.8 43.4509C100.616 42.9215 100.528 42.3638 100.538 41.8036C100.532 41.206 100.643 40.6129 100.866 40.0581C101.082 39.5301 101.414 39.0568 101.836 38.6727C102.308 38.263 102.857 37.9514 103.451 37.7563C104.177 37.5259 104.936 37.4154 105.698 37.4291H107.193V36.0654C107.252 35.7721 107.239 35.4688 107.154 35.1817C107.07 34.8946 106.917 34.6323 106.709 34.4175C106.501 34.2027 106.243 34.0419 105.959 33.9488C105.674 33.8558 105.371 33.8334 105.076 33.8836C104.763 33.8781 104.452 33.9337 104.16 34.0472C103.903 34.148 103.669 34.3002 103.473 34.4945C103.29 34.6786 103.145 34.8974 103.047 35.1381C102.952 35.389 102.904 35.6553 102.906 35.9236H100.724C100.724 35.4416 100.828 34.9654 101.029 34.5272C101.24 34.0557 101.54 33.6296 101.913 33.2727C102.32 32.8892 102.798 32.589 103.32 32.3891C103.905 32.15 104.532 32.0313 105.164 32.04C105.724 32.0362 106.282 32.1096 106.822 32.2581C107.305 32.3967 107.751 32.6386 108.131 32.9672C108.513 33.3051 108.805 33.7324 108.982 34.2109C109.202 34.8075 109.305 35.4407 109.287 36.0763V42.5345C109.287 42.7527 109.287 42.9818 109.287 43.2218C109.287 43.4618 109.287 43.7018 109.375 43.9418C109.407 44.1693 109.45 44.3951 109.506 44.6181C109.506 44.8254 109.615 45.0218 109.68 45.1963V45.3709H107.509ZM104.651 43.6691C104.937 43.6725 105.222 43.6244 105.491 43.5272C105.749 43.4479 105.995 43.3341 106.222 43.1891C106.434 43.0495 106.628 42.8846 106.8 42.6981C106.957 42.5327 107.09 42.3453 107.193 42.1418V39.0436H106.102C105.631 39.0362 105.161 39.095 104.706 39.2181C104.314 39.3099 103.943 39.4766 103.615 39.7091C103.329 39.9127 103.097 40.1822 102.938 40.4945C102.779 40.8358 102.701 41.209 102.709 41.5854C102.697 41.9242 102.737 42.2627 102.829 42.5891C102.89 42.8347 103.015 43.0603 103.189 43.2436C103.361 43.4109 103.571 43.5343 103.8 43.6036C104.078 43.672 104.364 43.705 104.651 43.7018V43.6691Z" fill="#4D4D4F"/>
<path d="M112.69 28.8218C112.696 28.4863 112.824 28.1646 113.05 27.9163C113.16 27.7863 113.3 27.684 113.457 27.6177C113.614 27.5514 113.785 27.5229 113.955 27.5345C114.127 27.5212 114.3 27.5488 114.459 27.6152C114.619 27.6815 114.76 27.7848 114.872 27.9163C115.08 28.1753 115.188 28.5005 115.177 28.8327C115.19 29.1618 115.081 29.4841 114.872 29.7382C114.627 29.9748 114.301 30.1071 113.961 30.1071C113.621 30.1071 113.294 29.9748 113.05 29.7382C112.818 29.4894 112.689 29.1618 112.69 28.8218ZM114.948 45.3709H112.766V32.28H114.948V45.3709Z" fill="#4D4D4F"/>
<path d="M120.35 32.28L120.404 33.6982C120.771 33.2018 121.24 32.7891 121.779 32.4872C122.326 32.1963 122.937 32.0464 123.557 32.0509C124.065 32.0269 124.573 32.1047 125.051 32.28C125.481 32.4621 125.856 32.7513 126.142 33.12C126.473 33.5599 126.713 34.0602 126.851 34.5927C127.025 35.3066 127.106 36.0399 127.091 36.7745V45.3709H124.964V36.7963C125.027 36.0333 124.847 35.2699 124.451 34.6145C124.26 34.3951 124.021 34.2228 123.752 34.1111C123.484 33.9995 123.193 33.9515 122.902 33.9709C122.376 33.9652 121.867 34.1558 121.473 34.5054C121.027 34.8803 120.676 35.3549 120.448 35.8909V45.3709H118.266V32.28H120.35Z" fill="#4D4D4F"/>
<path d="M135.01 45.6437C134.289 45.6566 133.572 45.5382 132.894 45.2945C132.277 45.0694 131.726 44.6947 131.29 44.2037C130.827 43.6748 130.481 43.0539 130.276 42.3819C130.03 41.5351 129.912 40.6563 129.926 39.7746V38.3237C129.904 37.3295 130.044 36.3383 130.341 35.3891C130.569 34.6775 130.94 34.0203 131.432 33.4582C131.851 32.9732 132.383 32.5987 132.981 32.3674C133.558 32.155 134.167 32.0443 134.781 32.0401C135.505 32.0209 136.224 32.1624 136.886 32.4545C137.463 32.7125 137.957 33.124 138.316 33.6437C138.711 34.2191 138.985 34.8685 139.123 35.5528C139.299 36.4252 139.383 37.3137 139.374 38.2037V39.4474H132.054V39.7528C131.966 40.8351 132.247 41.9152 132.85 42.8182C133.133 43.14 133.485 43.3937 133.88 43.5598C134.275 43.7261 134.702 43.8008 135.13 43.7782C135.46 43.7791 135.79 43.7426 136.112 43.6692C136.394 43.6019 136.666 43.4955 136.919 43.3527C137.159 43.2228 137.382 43.0654 137.585 42.8836C137.787 42.697 137.977 42.4966 138.152 42.2837L139.243 43.6364C139.056 43.9032 138.84 44.1485 138.599 44.3674C138.334 44.6185 138.032 44.8282 137.705 44.9892C137.326 45.1827 136.928 45.3327 136.516 45.4363C136.023 45.5637 135.518 45.6333 135.01 45.6437ZM134.77 33.8946C134.42 33.8893 134.073 33.9485 133.745 34.0692C133.419 34.19 133.132 34.3974 132.916 34.6692C132.644 35.0097 132.447 35.4037 132.337 35.8255C132.178 36.4239 132.09 37.0392 132.076 37.6583H137.236V37.3637C137.208 36.8955 137.154 36.4292 137.072 35.9674C137 35.5835 136.863 35.2147 136.668 34.8764C136.494 34.5779 136.241 34.3327 135.937 34.1674C135.579 33.9764 135.176 33.8824 134.77 33.8946Z" fill="#4D4D4F"/>
</svg>
