<svg width="20" height="15" viewBox="0 0 20 15" fill="none" xmlns="http://www.w3.org/2000/svg">
<path d="M11.6714 9.7433C11.1739 10.075 10.5959 10.2504 10 10.2504C9.40414 10.2504 8.82617 10.075 8.32859 9.7433L0.133164 4.27951C0.0876953 4.2492 0.0433984 4.2176 0 4.1851V13.1381C0 14.1646 0.833008 14.9792 1.84113 14.9792H18.1588C19.1853 14.9792 20 14.1462 20 13.1381V4.18506C19.9565 4.21764 19.9121 4.24932 19.8665 4.27967L11.6714 9.7433Z" fill="black"/>
<path d="M0.783203 3.30437L8.97863 8.7682C9.28887 8.97504 9.64441 9.07844 9.99996 9.07844C10.3555 9.07844 10.7111 8.975 11.0214 8.7682L19.2168 3.30437C19.7072 2.97762 20 2.43074 20 1.84051C20 0.825625 19.1743 0 18.1595 0H1.84051C0.825664 3.90625e-05 0 0.825664 0 1.84148C0 2.43074 0.292812 2.97762 0.783203 3.30437Z" fill="black"/>
</svg>
