<svg width="20" height="20" viewBox="0 0 20 20" fill="none" xmlns="http://www.w3.org/2000/svg">
<path d="M19.3567 14.4C19.302 14.3567 15.3333 11.496 14.244 11.7013C13.724 11.7933 13.4267 12.148 12.83 12.858C12.734 12.9727 12.5033 13.2473 12.324 13.4427C11.9469 13.3197 11.5791 13.17 11.2233 12.9947C9.38701 12.1007 7.90333 10.617 7.00933 8.78067C6.83391 8.42495 6.68419 8.05712 6.56133 7.68C6.75733 7.5 7.032 7.26933 7.14933 7.17067C7.856 6.57733 8.21133 6.28 8.30333 5.75867C8.492 4.67867 5.63333 0.682667 5.60333 0.646667C5.47363 0.461381 5.30437 0.307242 5.10778 0.195402C4.9112 0.0835624 4.69221 0.0168188 4.46667 0C3.308 0 0 4.29133 0 5.014C0 5.056 0.0606667 9.32533 5.32533 14.6807C10.6753 19.9393 14.944 20 14.986 20C15.7093 20 20 16.692 20 15.5333C19.9834 15.3086 19.917 15.0903 19.8058 14.8943C19.6945 14.6983 19.5411 14.5295 19.3567 14.4Z" fill="black"/>
</svg>
