<svg xmlns="http://www.w3.org/2000/svg" width="20" height="19" viewBox="0 0 20 19" fill="none">
  <path d="M19.577 8.34616C19.1712 7.80119 18.5488 7.48788 17.8688 7.48788H17.4997V5.83214C17.4997 3.53478 15.6306 1.66573 13.3332 1.66573H9.12017C8.99185 1.66573 8.86186 1.6349 8.7477 1.57824L6.11869 0.263318C5.77371 0.0908281 5.38707 3.48193e-07 5.00043 3.48193e-07H3.33386C1.49564 -0.000832934 0.000732422 1.49408 0.000732422 3.3323V14.165C0.000732422 16.4623 1.86978 18.3314 4.16714 18.3314H14.6315C16.4864 18.3314 18.0896 17.1381 18.6329 15.3257L19.9095 10.2294C20.1045 9.57775 19.9828 8.89196 19.577 8.34616ZM1.6673 14.165V3.3323C1.6673 2.41319 2.41475 1.66573 3.33386 1.66573H5.00043C5.12875 1.66573 5.25874 1.69656 5.3729 1.75323L8.00191 3.06815C8.34689 3.24064 8.73353 3.33146 9.12017 3.33146H13.3332C14.7115 3.33146 15.8331 4.45306 15.8331 5.83131V7.48704H7.17946C5.76288 7.48704 4.49796 8.38615 4.02215 9.75357L2.19726 15.7015C1.86562 15.2774 1.6673 14.7441 1.6673 14.165ZM18.3029 9.78773L17.0264 14.8833C16.7064 15.949 15.7439 16.6648 14.6315 16.6648H4.16714C3.99382 16.6648 3.82467 16.6473 3.66134 16.6131L5.60622 10.2727C5.83871 9.60358 6.472 9.15444 7.18029 9.15444H17.8696C18.0713 9.15444 18.1888 9.2711 18.2404 9.34109C18.2921 9.41109 18.3704 9.55692 18.3029 9.78773Z"/>
</svg>
