<svg xmlns="http://www.w3.org/2000/svg" width="20" height="19" viewBox="0 0 20 19" fill="none">
  <path d="M8.91741 1.66694C8.23558 0.217179 6.50757 -0.405321 5.05784 0.276515C4.44659 0.564015 3.95487 1.05573 3.66741 1.66694H1.25073C0.560381 1.66694 0.000732422 2.22659 0.000732422 2.91694C0.000732422 3.6073 0.560381 4.16694 1.25073 4.16694H3.66323C4.34507 5.61671 6.07308 6.23921 7.5228 5.55737C8.13401 5.26991 8.62573 4.77816 8.91323 4.16694H18.7507C19.4411 4.16694 20.0007 3.6073 20.0007 2.91694C20.0007 2.22659 19.4411 1.66694 18.7507 1.66694H8.91741Z"/>
  <path d="M13.7132 6.56277C12.5896 6.56477 11.5675 7.21352 11.0874 8.22945H1.25073C0.560381 8.22945 0.000732422 8.7891 0.000732422 9.47945C0.000732422 10.1698 0.560381 10.7295 1.25073 10.7295H11.0841C11.7659 12.1792 13.4939 12.8017 14.9436 12.1199C15.5548 11.8324 16.0466 11.3407 16.3341 10.7295H18.7507C19.4411 10.7295 20.0007 10.1698 20.0007 9.47945C20.0007 8.7891 19.4411 8.22945 18.7507 8.22945H16.3382C15.8583 7.21379 14.8366 6.56512 13.7132 6.56277Z"/>
  <path d="M6.28823 13.1253C5.16487 13.1276 4.14319 13.7763 3.66323 14.792H1.25073C0.560381 14.792 0.000732422 15.3516 0.000732422 16.042C0.000732422 16.7323 0.560381 17.292 1.25073 17.292H3.66323C4.34507 18.7417 6.07308 19.3642 7.5228 18.6824C8.13401 18.3949 8.62573 17.9032 8.91323 17.292H18.7507C19.4411 17.292 20.0007 16.7323 20.0007 16.042C20.0007 15.3516 19.4411 14.792 18.7507 14.792H8.91741C8.43679 13.775 7.41308 13.126 6.28823 13.1253Z"/>
</svg>
