<svg [attr.fill]="color" width="127" height="40" viewBox="0 0 127 40" fill="none" xmlns="http://www.w3.org/2000/svg">
  <path d="M0 20C-3.45813e-07 23.9556 1.17298 27.8223 3.37062 31.1113C5.56823 34.4005 8.69182 36.9639 12.3463 38.4777C16.0008 39.9913 20.0222 40.3874 23.9018 39.6157C27.7815 38.8441 31.3451 36.9392 34.1421 34.1421C36.9392 31.3451 38.8441 27.7815 39.6157 23.9018C40.3874 20.0222 39.9913 16.0008 38.4777 12.3463C36.9639 8.69182 34.4005 5.56823 31.1113 3.37062C27.8223 1.17298 23.9556 2.98641e-07 20 0V3.233C23.3162 3.233 26.558 4.21639 29.3151 6.05877C32.0726 7.90113 34.2215 10.5198 35.4908 13.5836C36.7598 16.6473 37.0918 20.0186 36.4449 23.2711C35.798 26.5236 34.201 29.511 31.8562 31.8562C29.511 34.201 26.5236 35.798 23.2711 36.4449C20.0186 37.0918 16.6473 36.7598 13.5835 35.4908C10.5198 34.2215 7.90113 32.0726 6.05877 29.3151C4.21639 26.558 3.233 23.3162 3.233 20H0Z"/>
  <path d="M5.38452 19.9999C5.38452 22.8906 6.2417 25.7163 7.84765 28.1197C9.45363 30.5232 11.7362 32.3966 14.4068 33.5027C17.0774 34.6089 20.0161 34.8984 22.8512 34.3345C25.6863 33.7704 28.2904 32.3786 30.3345 30.3345C32.3786 28.2904 33.7704 25.6863 34.3345 22.8512C34.8984 20.0161 34.6089 17.0774 33.5027 14.4068C32.3966 11.7362 30.5232 9.45362 28.1199 7.84765C25.7163 6.2417 22.8906 5.38452 19.9999 5.38452V8.26996C22.3199 8.26996 24.5877 8.95791 26.5168 10.2468C28.4458 11.5357 29.9491 13.3677 30.8371 15.5111C31.7248 17.6544 31.9571 20.0129 31.5045 22.2883C31.052 24.5637 29.9348 26.6538 28.2943 28.2943C26.6538 29.9348 24.5637 31.052 22.2883 31.5045C20.0129 31.9571 17.6544 31.7248 15.5111 30.8371C13.3677 29.9491 11.5357 28.4458 10.2468 26.5168C8.95791 24.5877 8.26996 22.3199 8.26996 19.9999H5.38452Z"/>
  <path d="M29.4872 20C29.4872 18.7541 29.2418 17.5205 28.7651 16.3694C28.2882 15.2184 27.5895 14.1725 26.7085 13.2915C25.8274 12.4106 24.7816 11.7118 23.6306 11.235C22.4795 10.7582 21.2459 10.5128 20 10.5128V13.7084C20.8262 13.7084 21.6444 13.8711 22.4077 14.1873C23.1711 14.5035 23.8646 14.9669 24.4489 15.5511C25.0331 16.1354 25.4965 16.8289 25.8128 17.5923C26.129 18.3556 26.2915 19.1738 26.2915 20H29.4872Z"/>
  <path d="M61.9924 15.8975H58.6796C58.7096 14.6655 58.7244 13.411 58.7244 12.134C58.7244 10.8569 58.6619 9.40711 58.5367 7.78452C58.707 7.42896 58.9449 6.88809 59.2503 6.16191C59.2855 6.08178 59.3755 5.98162 59.5208 5.86144C59.666 5.73624 59.7937 5.67365 59.9039 5.67365H62.2026C62.1675 6.3347 62.1501 7.06837 62.1501 7.87465C62.1501 10.3987 62.3178 12.9077 62.6534 15.4017C62.6534 15.4668 62.5732 15.567 62.4129 15.7022C62.2526 15.8324 62.1124 15.8975 61.9924 15.8975ZM56.839 15.5069C56.8039 15.582 56.7262 15.6671 56.6062 15.7623C56.486 15.8524 56.3908 15.8975 56.3206 15.8975H55.1262C54.916 14.6505 54.6429 13.3384 54.3075 11.9612C53.9719 10.584 53.6388 9.44968 53.3083 8.55826C53.3283 8.44306 53.3934 8.0925 53.5037 7.50657C53.6188 6.91562 53.699 6.46742 53.7442 6.16191C53.759 6.0918 53.8442 5.99416 53.9996 5.86896C54.1547 5.73875 54.2875 5.67365 54.3975 5.67365H56.5837C56.929 7.67686 57.2147 9.03152 57.4401 9.73765C57.6703 10.4388 57.8806 10.9997 58.0711 11.4203C57.5903 12.8576 57.1796 14.2198 56.839 15.5069ZM53.1431 10.4663C53.168 11.7183 53.2131 12.6748 53.2783 13.3359C53.3485 13.997 53.4962 14.6855 53.7216 15.4017C53.7216 15.4668 53.6388 15.567 53.4737 15.7022C53.3134 15.8324 53.1731 15.8975 53.0529 15.8975H50.6567C51.1524 14.7156 51.5406 13.7591 51.8211 13.0279C52.1014 12.2917 52.3242 11.6006 52.4896 10.9546C52.4896 10.8895 52.5696 10.7918 52.7298 10.6616C52.8901 10.5314 53.028 10.4663 53.1431 10.4663ZM69.8573 8.18265C68.6555 9.3345 68.0544 10.8895 68.0544 12.8476C68.0544 13.679 68.1647 14.5153 68.3849 15.3566C68.3801 15.4318 68.2973 15.5344 68.137 15.6646C67.9819 15.7948 67.849 15.8599 67.739 15.8599C66.8975 15.7448 66.169 15.3967 65.5529 14.8158C64.907 14.2048 64.5839 13.4436 64.5839 12.5321C64.5839 11.6157 64.8119 10.8344 65.2675 10.1884C65.7283 9.53732 66.3567 9.04152 67.1529 8.70098C67.9493 8.35542 68.8508 8.18265 69.8573 8.18265ZM68.8432 15.9651C70.0452 14.8133 70.6462 13.2583 70.6462 11.3001C70.6462 10.4688 70.536 9.63247 70.3155 8.79114C70.3206 8.71601 70.4006 8.61334 70.556 8.48314C70.7162 8.35293 70.8514 8.28783 70.9616 8.28783C71.8029 8.40301 72.529 8.75106 73.1401 9.33198C73.7911 9.94296 74.1167 10.7067 74.1167 11.6232C74.1167 12.5346 73.8862 13.3159 73.4255 13.9669C72.9698 14.6129 72.3439 15.1087 71.5475 15.4543C70.7514 15.7948 69.8498 15.9651 68.8432 15.9651ZM78.9919 15.8975H75.837C76.3578 13.704 76.7183 11.3878 76.9185 8.94888C76.9185 8.88878 76.9988 8.79865 77.1591 8.67844C77.3193 8.55324 77.487 8.47562 77.6624 8.44557C77.8426 8.41552 78.2783 8.37547 78.9693 8.32539C79.6655 8.27029 80.2039 8.24275 80.5844 8.24275C80.1788 10.3411 79.866 12.7274 79.6455 15.4017C79.6455 15.4668 79.5655 15.567 79.4052 15.7022C79.2449 15.8324 79.1073 15.8975 78.9919 15.8975ZM81.7039 15.9726C81.4134 15.6922 81.268 15.3316 81.268 14.8909C81.268 14.4502 81.3783 13.6088 81.5985 12.3669C81.8239 11.1249 81.9367 10.3611 81.9367 10.0757C81.9367 9.78521 81.8665 9.57739 81.7262 9.45219C81.5911 9.32198 81.4134 9.25688 81.1929 9.25688C81.238 8.95639 81.3232 8.73103 81.4483 8.58078C81.6337 8.49065 81.9242 8.40801 82.3198 8.33288C82.7203 8.25778 83.0911 8.22021 83.4316 8.22021C84.0975 8.22021 84.596 8.37296 84.9265 8.67844C85.2619 8.98393 85.4298 9.46721 85.4298 10.1283C85.4298 10.4989 85.3496 11.1499 85.1893 12.0814C85.0291 13.0129 84.9491 13.5838 84.9491 13.7941C84.9491 14.0045 84.9565 14.1622 84.9716 14.2674C84.9916 14.3725 85.0065 14.4552 85.0165 14.5153C85.0316 14.5754 85.0667 14.6455 85.1219 14.7256C85.1767 14.8008 85.2119 14.8483 85.227 14.8683C85.2419 14.8834 85.2921 14.9334 85.3773 15.0186C85.4624 15.0987 85.5124 15.1463 85.5275 15.1613C85.5275 15.2314 85.4547 15.3491 85.3096 15.5144C85.1644 15.6747 85.0316 15.7798 84.9114 15.8299C84.2703 15.925 83.2011 15.9726 81.7039 15.9726ZM91.3567 15.3867C91.3567 15.4568 91.2767 15.5594 91.1165 15.6947C90.9562 15.8299 90.816 15.8975 90.6957 15.8975H87.6008C87.8211 14.956 88.0739 13.3835 88.3596 11.18C88.6498 8.97642 88.8503 7.24865 88.9603 5.99665C88.9603 5.93155 89.0406 5.83391 89.2008 5.70368C89.3611 5.56847 89.4988 5.50085 89.6139 5.50085H92.7765C92.5111 6.60262 92.2357 8.19268 91.9501 10.271C91.6647 12.3443 91.467 14.0495 91.3567 15.3867ZM92.0629 15.8374C92.6237 15.4818 93.0544 14.8934 93.355 14.0721C93.6603 13.2508 93.8132 12.3568 93.8132 11.3903C93.8132 10.4237 93.5426 9.54232 93.0019 8.74606C93.0019 8.67093 93.0796 8.56826 93.2347 8.43806C93.3901 8.30785 93.5252 8.24275 93.6403 8.24275C94.3065 8.24275 94.9124 8.37796 95.4583 8.64839C96.0042 8.91883 96.4424 9.31696 96.7729 9.8428C97.1034 10.3637 97.2688 10.9671 97.2688 11.6532C97.2688 12.9202 96.818 13.9344 95.9165 14.6956C95.0152 15.4568 93.7306 15.8374 92.0629 15.8374ZM102.722 15.3867C102.722 15.4568 102.642 15.5594 102.482 15.6947C102.322 15.8299 102.182 15.8975 102.061 15.8975H98.9665C99.1867 14.956 99.4396 13.3835 99.7252 11.18C100.016 8.97642 100.216 7.24865 100.326 5.99665C100.326 5.93155 100.406 5.83391 100.566 5.70368C100.727 5.56847 100.864 5.50085 100.98 5.50085H104.142C103.877 6.60262 103.601 8.19268 103.316 10.271C103.03 12.3443 102.833 14.0495 102.722 15.3867ZM114.374 15.597C113.397 15.8073 112.348 15.9125 111.226 15.9125C110.971 15.567 110.843 15.2039 110.843 14.8233C110.843 14.4427 110.956 13.4786 111.181 11.9311C111.406 10.3787 111.522 9.34701 111.526 8.83619C111.526 8.77109 111.609 8.67344 111.774 8.54324C111.94 8.41301 112.078 8.34791 112.188 8.34791C113.259 8.34791 114.268 8.49065 115.215 8.77611C115.195 8.93637 115.062 9.57488 114.817 10.6917C114.571 11.8034 114.449 12.6974 114.449 13.3734C114.449 14.0445 114.629 14.5604 114.99 14.9209C114.99 14.991 114.92 15.1087 114.779 15.274C114.639 15.4343 114.504 15.5419 114.374 15.597ZM110.895 8.24275C110.3 8.68344 109.846 9.28191 109.536 10.0381C109.23 10.7943 109.078 11.538 109.078 12.2692C109.078 12.9953 109.158 13.6489 109.318 14.2298C109.483 14.8058 109.704 15.1914 109.979 15.3867C109.979 15.4618 109.899 15.567 109.739 15.7022C109.578 15.8324 109.441 15.8975 109.325 15.8975C108.179 15.8975 107.257 15.6095 106.561 15.0336C105.87 14.4577 105.524 13.6714 105.524 12.6748C105.524 11.4379 105.993 10.3987 106.929 9.55734C107.38 9.1517 107.946 8.83119 108.627 8.5958C109.313 8.36044 110.069 8.24275 110.895 8.24275ZM120.023 15.8975H116.868C117.388 13.704 117.749 11.3878 117.949 8.94888C117.949 8.88878 118.029 8.79865 118.19 8.67844C118.35 8.55324 118.518 8.47562 118.693 8.44557C118.873 8.41552 119.309 8.37547 120 8.32539C120.696 8.27029 121.234 8.24275 121.615 8.24275C121.21 10.3411 120.896 12.7274 120.676 15.4017C120.676 15.4668 120.596 15.567 120.436 15.7022C120.275 15.8324 120.138 15.8975 120.023 15.8975ZM122.734 15.9726C122.444 15.6922 122.299 15.3316 122.299 14.8909C122.299 14.4502 122.409 13.6088 122.629 12.3669C122.855 11.1249 122.967 10.3611 122.967 10.0757C122.967 9.78521 122.897 9.57739 122.757 9.45219C122.622 9.32198 122.444 9.25688 122.224 9.25688C122.269 8.95639 122.354 8.73103 122.479 8.58078C122.664 8.49065 122.955 8.40801 123.35 8.33288C123.751 8.25778 124.122 8.22021 124.462 8.22021C125.128 8.22021 125.626 8.37296 125.957 8.67844C126.293 8.98393 126.46 9.46721 126.46 10.1283C126.46 10.4989 126.38 11.1499 126.22 12.0814C126.06 13.0129 125.98 13.5838 125.98 13.7941C125.98 14.0045 125.987 14.1622 126.002 14.2674C126.022 14.3725 126.037 14.4552 126.047 14.5153C126.062 14.5754 126.097 14.6455 126.152 14.7256C126.208 14.8008 126.243 14.8483 126.258 14.8683C126.273 14.8834 126.323 14.9334 126.408 15.0186C126.493 15.0987 126.543 15.1463 126.558 15.1613C126.558 15.2314 126.485 15.3491 126.34 15.5144C126.195 15.6747 126.062 15.7798 125.942 15.8299C125.301 15.925 124.232 15.9726 122.734 15.9726Z"/>
  <path d="M51.8916 35.8974H48.3911C49.0621 33.4685 49.5578 30.2233 49.8783 26.1618C49.8783 26.0967 49.9611 25.999 50.1262 25.869C50.2916 25.7387 50.4319 25.6736 50.547 25.6736H54.0327C53.647 27.3013 53.3239 29.0364 53.0634 30.8795C53.4542 30.9144 53.9475 30.9795 54.5434 31.0746C55.1442 31.1697 55.555 31.2526 55.7752 31.3226C55.7752 31.6079 55.7227 31.8133 55.6175 31.9387C54.656 31.9987 53.7344 32.139 52.8532 32.3592C52.748 33.2156 52.6452 34.2297 52.5452 35.4015C52.5452 35.4667 52.465 35.5669 52.3047 35.7021C52.1444 35.8323 52.0068 35.8974 51.8916 35.8974ZM56.3162 30.2259C56.196 29.4697 55.968 28.7159 55.6327 27.9646C55.297 27.2136 54.9591 26.6503 54.6185 26.2746C54.6434 26.0341 54.7162 25.8338 54.8362 25.6736H57.5632C57.528 26.1592 57.4529 26.8128 57.3378 27.6341C57.2227 28.4505 57.0998 29.1467 56.9698 29.7226C56.9498 29.8077 56.8644 29.9128 56.7144 30.0379C56.5642 30.1633 56.4314 30.2259 56.3162 30.2259ZM58.6824 35.8974C59.1183 34.0544 59.4511 31.7308 59.6816 28.9261C59.6816 28.8613 59.7642 28.7636 59.9296 28.6333C60.0947 28.5031 60.2324 28.4379 60.3427 28.4379H63.4901C63.0544 30.311 62.7214 32.6323 62.4911 35.4015C62.4911 35.4667 62.4109 35.5669 62.2506 35.7021C62.0903 35.8323 61.9527 35.8974 61.8375 35.8974H58.6824ZM63.0696 27.4238H59.9296C60.0247 27.0382 60.0873 26.6603 60.1173 26.2895C60.1173 26.2195 60.1975 26.1192 60.3578 25.989C60.518 25.8538 60.6557 25.7861 60.7709 25.7861H63.926C63.8609 26.0215 63.7932 26.4023 63.7232 26.9282C63.7232 26.9982 63.6429 27.0985 63.4827 27.2285C63.3275 27.3587 63.1896 27.4238 63.0696 27.4238ZM68.2227 35.8974H65.0678C65.5886 33.7038 65.9491 31.3877 66.1493 28.9487C66.1493 28.8887 66.2296 28.7985 66.3898 28.6785C66.5501 28.5531 66.7178 28.4756 66.8932 28.4456C67.0734 28.4154 67.5091 28.3754 68.2001 28.3254C68.8962 28.2703 69.4347 28.2426 69.8152 28.2426C69.4096 30.341 69.0968 32.7274 68.8762 35.4015C68.8762 35.4667 68.7962 35.5669 68.636 35.7021C68.4757 35.8323 68.338 35.8974 68.2227 35.8974ZM70.9347 35.9726C70.6442 35.692 70.4988 35.3315 70.4988 34.8908C70.4988 34.45 70.6091 33.6087 70.8293 32.3667C71.0547 31.1249 71.1675 30.361 71.1675 30.0756C71.1675 29.7851 71.0973 29.5774 70.957 29.452C70.8219 29.3218 70.6442 29.2569 70.4237 29.2569C70.4688 28.9564 70.5539 28.731 70.6791 28.5808C70.8645 28.4905 71.155 28.4079 71.5506 28.3328C71.9511 28.2577 72.3219 28.2203 72.6624 28.2203C73.3283 28.2203 73.8268 28.3728 74.1573 28.6785C74.4927 28.9838 74.6606 29.4672 74.6606 30.1282C74.6606 30.4987 74.5803 31.1497 74.4201 32.0813C74.2598 33.0128 74.1798 33.5838 74.1798 33.7941C74.1798 34.0044 74.1873 34.162 74.2024 34.2674C74.2224 34.3726 74.2373 34.4551 74.2473 34.5151C74.2624 34.5754 74.2975 34.6454 74.3527 34.7256C74.4075 34.8008 74.4427 34.8482 74.4578 34.8682C74.4727 34.8833 74.5229 34.9333 74.608 35.0185C74.6932 35.0987 74.7432 35.1462 74.7583 35.1613C74.7583 35.2313 74.6855 35.349 74.5403 35.5144C74.3952 35.6746 74.2624 35.7797 74.1421 35.8297C73.5011 35.9249 72.4319 35.9726 70.9347 35.9726ZM85.6657 35.5969C84.6891 35.8072 83.6398 35.9126 82.518 35.9126C82.2627 35.5669 82.135 35.2038 82.135 34.8233C82.135 34.4426 82.2478 33.4785 82.4732 31.931C82.6983 30.3787 82.8137 29.3469 82.8186 28.8361C82.8186 28.771 82.9011 28.6733 83.0665 28.5431C83.2319 28.4131 83.3696 28.3479 83.4796 28.3479C84.5514 28.3479 85.5606 28.4905 86.507 28.7761C86.487 28.9364 86.3542 29.5749 86.1088 30.6915C85.8634 31.8033 85.7409 32.6974 85.7409 33.3733C85.7409 34.0444 85.9211 34.5603 86.2816 34.9208C86.2816 34.991 86.2116 35.1087 86.0714 35.2738C85.9311 35.4341 85.796 35.5418 85.6657 35.5969ZM82.1875 28.2426C81.5916 28.6833 81.1383 29.2818 80.828 30.0379C80.5224 30.7944 80.3696 31.5379 80.3696 32.2692C80.3696 32.9954 80.4498 33.6487 80.6101 34.2297C80.7752 34.8056 80.9957 35.1913 81.2711 35.3867C81.2711 35.4618 81.1911 35.5669 81.0309 35.7021C80.8706 35.8323 80.7327 35.8974 80.6175 35.8974C79.4709 35.8974 78.5493 35.6095 77.8532 35.0336C77.1621 34.4577 76.8165 33.6713 76.8165 32.6749C76.8165 31.4377 77.2847 30.3987 78.2211 29.5572C78.6719 29.1515 79.2378 28.831 79.9191 28.5956C80.605 28.3603 81.3614 28.2426 82.1875 28.2426ZM91.3147 35.8974H88.1596C88.6806 33.7038 89.0411 31.3877 89.2414 28.9487C89.2414 28.8887 89.3216 28.7985 89.4819 28.6785C89.6421 28.5531 89.8098 28.4756 89.985 28.4456C90.1655 28.4154 90.6011 28.3754 91.2921 28.3254C91.9883 28.2703 92.5268 28.2426 92.9073 28.2426C92.5016 30.341 92.1886 32.7274 91.9683 35.4015C91.9683 35.4667 91.888 35.5669 91.7278 35.7021C91.5675 35.8323 91.4298 35.8974 91.3147 35.8974ZM94.0265 35.9726C93.736 35.692 93.5909 35.3315 93.5909 34.8908C93.5909 34.45 93.7011 33.6087 93.9214 32.3667C94.1468 31.1249 94.2593 30.361 94.2593 30.0756C94.2593 29.7851 94.1893 29.5774 94.0491 29.452C93.9139 29.3218 93.736 29.2569 93.5157 29.2569C93.5609 28.9564 93.646 28.731 93.7711 28.5808C93.9565 28.4905 94.2468 28.4079 94.6424 28.3328C95.0432 28.2577 95.4137 28.2203 95.7542 28.2203C96.4204 28.2203 96.9186 28.3728 97.2491 28.6785C97.5847 28.9838 97.7524 29.4672 97.7524 30.1282C97.7524 30.4987 97.6724 31.1497 97.5121 32.0813C97.3519 33.0128 97.2716 33.5838 97.2716 33.7941C97.2716 34.0044 97.2793 34.162 97.2942 34.2674C97.3142 34.3726 97.3293 34.4551 97.3393 34.5151C97.3545 34.5754 97.3893 34.6454 97.4445 34.7256C97.4996 34.8008 97.5347 34.8482 97.5496 34.8682C97.5647 34.8833 97.6147 34.9333 97.6998 35.0185C97.785 35.0987 97.8352 35.1462 97.8501 35.1613C97.8501 35.2313 97.7775 35.349 97.6324 35.5144C97.487 35.6746 97.3545 35.7797 97.2342 35.8297C96.5932 35.9249 95.5239 35.9726 94.0265 35.9726ZM106.79 28.4679C107.365 28.5882 107.826 28.8487 108.172 29.2492C108.522 29.65 108.698 30.0531 108.698 30.4587C108.698 30.8595 108.52 31.1574 108.164 31.3526C107.809 31.5431 107.453 31.6382 107.098 31.6382C106.742 31.6382 106.386 31.5705 106.031 31.4354C106.066 30.9646 106.083 30.5364 106.083 30.1508C106.083 29.76 106.051 29.362 105.986 28.9564C106.001 28.8461 106.101 28.7385 106.286 28.6333C106.477 28.5231 106.644 28.4679 106.79 28.4679ZM105.52 28.2651C104.999 28.6659 104.566 29.2092 104.22 29.8954C103.88 30.5815 103.71 31.2349 103.71 31.8559C103.71 32.4769 103.785 32.9728 103.935 33.3433C104.085 33.7138 104.298 34.0118 104.573 34.2372C105.119 34.6831 105.828 34.9059 106.699 34.9059C107.14 34.9059 107.611 34.8482 108.112 34.7331C107.696 35.229 107.19 35.5695 106.594 35.7546C105.998 35.94 105.26 36.0326 104.378 36.0326C103.497 36.0326 102.735 35.9 102.094 35.6346C101.459 35.369 100.948 34.961 100.562 34.41C100.177 33.8592 99.9837 33.1882 99.9837 32.3969C99.9837 31.6005 100.189 30.8744 100.6 30.2185C101.01 29.5572 101.559 29.049 102.245 28.6933C102.931 28.3379 103.687 28.16 104.513 28.16C104.779 28.16 105.114 28.1951 105.52 28.2651ZM116.901 28.4305C117.582 28.6659 118.098 28.9964 118.448 29.422C118.804 29.8428 118.981 30.2936 118.981 30.7744C118.981 31.4303 118.699 31.9862 118.133 32.4418C117.567 32.8977 116.795 33.1254 115.819 33.1254C115.513 33.1254 115.178 33.0754 114.812 32.9754C115.343 32.6446 115.701 32.2141 115.887 31.6831C116.047 31.2226 116.127 30.6815 116.127 30.0605C116.127 29.9405 116.114 29.5723 116.089 28.9564C116.084 28.8913 116.184 28.7885 116.39 28.6485C116.6 28.5082 116.77 28.4354 116.901 28.4305ZM115.684 28.3103C115.063 28.731 114.569 29.2844 114.204 29.9705C113.843 30.6567 113.663 31.3903 113.663 32.1715C113.663 32.9528 113.963 33.5887 114.564 34.0795C115.165 34.5703 116.042 34.8156 117.194 34.8156C117.509 34.8156 117.847 34.7882 118.208 34.7331C117.972 35.1036 117.519 35.4141 116.848 35.6646C116.177 35.91 115.473 36.0326 114.737 36.0326C114.001 36.0326 113.372 35.96 112.852 35.8149C112.331 35.6646 111.865 35.4441 111.454 35.1538C111.049 34.8633 110.728 34.4851 110.493 34.0195C110.258 33.5487 110.14 33.0328 110.14 32.472C110.14 31.9061 110.228 31.3951 110.403 30.9395C110.578 30.4838 110.818 30.0931 111.124 29.7677C111.429 29.442 111.785 29.1615 112.191 28.9261C112.997 28.4705 113.926 28.2426 114.978 28.2426C115.238 28.2426 115.473 28.2651 115.684 28.3103Z"/>
</svg>
