<svg xmlns="http://www.w3.org/2000/svg" width="109" height="120" viewBox="0 0 109 120" fill="none">
  <path d="M25.0679 93.1234H15.0369C14.8657 97.1117 14.2169 101.065 13.1043 104.899C12.0716 108.43 10.6878 112.403 12.5201 115.594C14.1468 118.425 17.7052 119.45 20.9499 119.814C23.1675 120.16 25.4338 120.021 27.5926 119.407C28.6681 119.089 29.653 118.521 30.4667 117.75C31.2804 116.978 31.8998 116.025 32.2742 114.967C33.3561 111.298 30.5294 107.788 28.5702 104.501C26.5291 101.034 25.3296 97.1375 25.0679 93.1234Z" fill="#8B8AAF"/>
  <path d="M70.8422 93.1234H60.8103C60.549 97.1376 59.3495 101.035 57.3079 104.501C55.3497 107.786 52.5241 111.298 53.604 114.967C53.9784 116.025 54.598 116.978 55.4119 117.75C56.2258 118.522 57.2109 119.089 58.2865 119.407C60.4453 120.022 62.7116 120.16 64.9293 119.814C68.1749 119.45 71.7323 118.425 73.3581 115.594C75.1914 112.403 73.8066 108.43 72.7739 104.899C71.6621 101.065 71.0136 97.1117 70.8422 93.1234Z" fill="#8B8AAF"/>
  <path d="M34.4115 9.74395L23.9094 0.344393C23.7143 0.172273 23.4744 0.0589486 23.2176 0.0175469C22.9607 -0.0238548 22.6974 0.00836056 22.4581 0.110461C22.2188 0.212562 22.0133 0.380369 21.8655 0.594445C21.7176 0.80852 21.6334 1.0601 21.6227 1.32005L21.0532 18.0675L34.4115 9.74395Z" fill="#77779C"/>
  <path d="M51.4675 9.74395L61.9696 0.344393C62.1647 0.172273 62.4046 0.0589486 62.6614 0.0175469C62.9183 -0.0238548 63.1816 0.00836056 63.4209 0.110461C63.6602 0.212562 63.8657 0.380369 64.0135 0.594445C64.1614 0.80852 64.2456 1.0601 64.2563 1.32005L64.8258 18.0675L51.4675 9.74395Z" fill="#77779C"/>
  <path d="M53.2273 10.6832L60.5054 4.17031C60.6401 4.04982 60.8064 3.97022 60.9848 3.94084C61.1631 3.91146 61.3462 3.93351 61.5124 4.00442C61.6787 4.07532 61.8213 4.19214 61.9236 4.34119C62.0259 4.49024 62.0835 4.66535 62.0898 4.84599L62.4833 16.4516L53.2273 10.6832Z" fill="#F28B91"/>
  <path d="M32.3597 10.6832L25.0816 4.17031C24.9469 4.04982 24.7806 3.97022 24.6022 3.94084C24.4239 3.91146 24.2409 3.93351 24.0746 4.00442C23.9083 4.07532 23.7657 4.19214 23.6634 4.34119C23.5612 4.49024 23.5035 4.66535 23.4972 4.84599L23.1038 16.4516L32.3597 10.6832Z" fill="#F28B91"/>
  <path d="M108.56 65.3673C108.379 61.8482 107.51 58.3987 106.003 55.2133C105.211 53.7792 104.089 52.5542 102.729 51.6394C101.37 50.7246 99.8128 50.1464 98.1859 49.9525C96.0257 49.6876 93.8381 50.1367 91.957 51.2313C90.0759 52.3259 88.6045 54.0059 87.7675 56.0149C86.4889 59.6707 87.972 64.2047 89.7493 67.6461C93.6558 75.2094 96.1697 79.0678 90.1092 85.0466C85.6224 89.4725 77.9263 93.1292 70.8193 94.1934V100.818C77.6824 100.425 87.2698 97.7695 92.867 94.3134C102.837 88.1526 109.558 76.4152 108.56 65.3673Z" fill="#8B8AAF"/>
  <path d="M92.8592 94.3065C87.2669 97.7695 77.6775 100.418 70.8135 100.818V98.633C77.2713 97.7784 85.0746 95.3874 89.8939 92.4191C99.8698 86.2573 106.591 74.519 105.595 63.4691C105.408 59.9493 104.536 56.4997 103.028 53.3141C102.519 52.3296 101.833 51.4471 101.005 50.7108C103.135 51.5925 104.897 53.1793 105.997 55.2055C107.504 58.3938 108.375 61.8456 108.56 65.3673C109.557 76.4103 102.835 88.1546 92.8592 94.3065Z" fill="#77779C"/>
  <path d="M70.8049 31.6156C70.8049 17.8305 58.3298 6.65569 42.9396 6.65569C27.5494 6.65569 15.0744 17.8305 15.0744 31.6156C15.0744 37.142 2.56787 71.6815 2.56787 84.7417C2.56787 107.159 22.6623 115.274 42.9396 115.274C63.217 115.274 83.3114 107.159 83.3114 84.7417C83.3114 71.6815 70.8049 37.142 70.8049 31.6156Z" fill="#8B8AAF"/>
  <path d="M60.395 58.9891C60.2976 58.6526 60.1315 58.3399 59.9072 58.0708C59.6829 57.8017 59.4053 57.582 59.0918 57.4255C58.7784 57.2691 58.4359 57.1793 58.086 57.1618C57.7361 57.1443 57.3864 57.1995 57.0589 57.324C47.4607 60.9237 38.0592 61.1302 28.8838 57.4479C28.5528 57.3096 28.1963 57.2427 27.8376 57.2516C27.4789 57.2605 27.1262 57.3449 26.8023 57.4993C26.4785 57.6538 26.1909 57.8748 25.9583 58.1479C25.7256 58.4211 25.5532 58.7402 25.4523 59.0845C23.4017 66.2377 21.0491 74.9438 21.0491 78.8534C21.0491 83.9323 22.9119 87.4877 26.9099 90.0429C30.7457 92.4929 36.4344 93.8423 42.9355 93.8423C49.4366 93.8423 55.1312 92.4929 58.962 90.0429C62.9601 87.4858 64.8219 83.9323 64.8219 78.8534C64.8258 74.9261 62.4526 66.16 60.395 58.9891Z" fill="#F1F2F2"/>
  <path d="M53.8456 29.0506C56.141 28.508 57.5619 26.2074 57.0193 23.912C56.4767 21.6167 54.1761 20.1957 51.8807 20.7383C49.5854 21.2809 48.1645 23.5815 48.707 25.8769C49.2496 28.1723 51.5502 29.5932 53.8456 29.0506Z" fill="white"/>
  <path d="M53.1526 26.1179C53.8282 25.9582 54.2464 25.281 54.0867 24.6055C53.927 23.9299 53.2499 23.5117 52.5743 23.6714C51.8987 23.8311 51.4805 24.5082 51.6402 25.1838C51.7999 25.8594 52.477 26.2776 53.1526 26.1179Z" fill="#3A556A"/>
  <path d="M33.9857 29.055C36.2811 28.5124 37.702 26.2118 37.1594 23.9165C36.6168 21.6211 34.3162 20.2002 32.0209 20.7428C29.7255 21.2854 28.3046 23.586 28.8472 25.8813C29.3898 28.1767 31.6904 29.5976 33.9857 29.055Z" fill="white"/>
  <path d="M33.2925 26.1223C33.9681 25.9626 34.3863 25.2855 34.2266 24.6099C34.0669 23.9344 33.3898 23.5162 32.7142 23.6759C32.0386 23.8356 31.6204 24.5127 31.7801 25.1882C31.9398 25.8638 32.6169 26.282 33.2925 26.1223Z" fill="#3A556A"/>
  <path d="M44.288 35.2173H41.5912C41.1299 35.2172 40.6774 35.3432 40.2826 35.5817C39.8878 35.8202 39.5657 36.1622 39.3512 36.5705C39.1367 36.9789 39.0379 37.4381 39.0656 37.8985C39.0932 38.359 39.2463 38.8031 39.5081 39.1828L40.8565 41.1391C41.0891 41.4766 41.4002 41.7526 41.7631 41.9433C42.1259 42.1339 42.5297 42.2335 42.9396 42.2335C43.3495 42.2335 43.7533 42.1339 44.1162 41.9433C44.4791 41.7526 44.7902 41.4766 45.0227 41.1391L46.3711 39.1828C46.633 38.8031 46.786 38.359 46.8137 37.8985C46.8413 37.4381 46.7425 36.9789 46.528 36.5705C46.3135 36.1622 45.9914 35.8202 45.5966 35.5817C45.2018 35.3432 44.7493 35.2172 44.288 35.2173Z" fill="#3A556A"/>
  <path d="M42.9394 47.9795C40.0989 47.9102 37.3498 46.9614 35.0712 45.264C35.0153 45.2264 34.9673 45.178 34.9303 45.1217C34.8932 45.0653 34.8676 45.0022 34.8552 44.9359C34.8427 44.8697 34.8436 44.8016 34.8577 44.7356C34.8718 44.6697 34.8989 44.6072 34.9374 44.5518C34.9758 44.4964 35.025 44.4493 35.0818 44.4131C35.1387 44.3768 35.2023 44.3523 35.2687 44.3409C35.3352 44.3294 35.4032 44.3313 35.469 44.3465C35.5347 44.3616 35.5967 44.3896 35.6515 44.429C40.5524 47.829 45.3205 47.829 50.2224 44.429C50.2771 44.388 50.3395 44.3584 50.4059 44.3421C50.4722 44.3258 50.5412 44.323 50.6087 44.3339C50.6761 44.3448 50.7407 44.3693 50.7985 44.4057C50.8563 44.4421 50.9062 44.4899 50.9452 44.546C50.9841 44.6022 51.0114 44.6656 51.0253 44.7325C51.0392 44.7994 51.0394 44.8685 51.026 44.9355C51.0126 45.0025 50.9859 45.0661 50.9473 45.1226C50.9088 45.179 50.8593 45.2271 50.8017 45.264C48.5248 46.9603 45.7779 47.909 42.9394 47.9795Z" fill="#3A556A"/>
  <path d="M51.8228 37.5207L63.2366 34.0951L51.8228 37.5207Z" fill="#BAC2D3"/>
  <path d="M51.8228 37.7744C51.7613 37.7754 51.7016 37.754 51.6547 37.7141C51.6078 37.6743 51.5769 37.6188 51.5679 37.5579C51.5589 37.4971 51.5723 37.435 51.6056 37.3833C51.639 37.3316 51.6899 37.2937 51.7491 37.2768L63.1639 33.8521C63.2284 33.8328 63.298 33.84 63.3573 33.872C63.4166 33.904 63.4608 33.9582 63.4801 34.0228C63.4994 34.0873 63.4923 34.1569 63.4602 34.2162C63.4282 34.2755 63.374 34.3197 63.3094 34.339L51.8956 37.7636C51.8721 37.771 51.8475 37.7746 51.8228 37.7744Z" fill="#3A556A"/>
  <path d="M51.8228 38.7304L64.6194 38.3478L51.8228 38.7304Z" fill="#BAC2D3"/>
  <path d="M51.8227 38.9842C51.7578 38.9813 51.6966 38.9537 51.6513 38.9072C51.6061 38.8606 51.5804 38.7985 51.5794 38.7336C51.5784 38.6687 51.6022 38.6059 51.6459 38.558C51.6897 38.51 51.7501 38.4806 51.8148 38.4757L64.6115 38.0931C64.6783 38.0932 64.7426 38.1188 64.7912 38.1647C64.8398 38.2106 64.8691 38.2733 64.8731 38.34C64.8741 38.3734 64.8686 38.4067 64.8567 38.4379C64.8449 38.4692 64.827 38.4978 64.804 38.5221C64.7811 38.5464 64.7536 38.5659 64.7231 38.5796C64.6925 38.5932 64.6596 38.6007 64.6262 38.6016L51.8296 38.9842H51.8227Z" fill="#3A556A"/>
  <path d="M51.8228 40.0562L63.2366 42.4826L51.8228 40.0562Z" fill="#BAC2D3"/>
  <path d="M63.2377 42.7373C63.2198 42.7374 63.202 42.7354 63.1846 42.7314L51.7698 40.3051C51.737 40.2983 51.7058 40.2851 51.6781 40.2662C51.6505 40.2473 51.6268 40.2231 51.6085 40.1951C51.5902 40.167 51.5777 40.1356 51.5716 40.1026C51.5655 40.0697 51.566 40.0359 51.5731 40.0031C51.5882 39.9378 51.6279 39.8809 51.684 39.8442C51.7401 39.8076 51.8082 39.794 51.874 39.8064L63.2888 42.2338C63.3508 42.2461 63.4059 42.2812 63.4434 42.332C63.4809 42.3829 63.4981 42.4459 63.4916 42.5088C63.4851 42.5716 63.4553 42.6298 63.4082 42.6719C63.361 42.714 63.2999 42.7369 63.2367 42.7363L63.2377 42.7373Z" fill="#3A556A"/>
  <path d="M34.0564 37.5207L22.6426 34.0951L34.0564 37.5207Z" fill="#BAC2D3"/>
  <path d="M34.0573 37.7744C34.0323 37.7747 34.0074 37.7711 33.9835 37.7636L22.5746 34.339C22.51 34.3197 22.4558 34.2755 22.4238 34.2162C22.3918 34.1569 22.3847 34.0873 22.404 34.0228C22.4233 33.9582 22.4674 33.904 22.5267 33.872C22.586 33.84 22.6556 33.8328 22.7202 33.8521L34.135 37.2768C34.194 37.2937 34.2449 37.3315 34.2782 37.3831C34.3116 37.4347 34.325 37.4966 34.3161 37.5574C34.3072 37.6182 34.2766 37.6737 34.2299 37.7136C34.1832 37.7535 34.1236 37.7751 34.0622 37.7744H34.0573Z" fill="#3A556A"/>
  <path d="M34.0564 38.7304L21.2607 38.3478L34.0564 38.7304Z" fill="#BAC2D3"/>
  <path d="M34.0574 38.9842H34.0495L21.2528 38.6016C21.2194 38.6007 21.1865 38.5932 21.156 38.5796C21.1255 38.5659 21.098 38.5464 21.0751 38.5221C21.0521 38.4978 21.0342 38.4692 21.0223 38.4379C21.0105 38.4067 21.0049 38.3734 21.006 38.34C21.0088 38.2728 21.0377 38.2095 21.0866 38.1633C21.1355 38.1172 21.2004 38.092 21.2676 38.0931L34.0643 38.4757C34.129 38.4805 34.1894 38.5098 34.2332 38.5577C34.277 38.6055 34.301 38.6683 34.3001 38.7332C34.2992 38.7981 34.2736 38.8602 34.2285 38.9068C34.1834 38.9535 34.1222 38.9811 34.0574 38.9842Z" fill="#3A556A"/>
  <path d="M34.0564 40.0562L22.6426 42.4826L34.0564 40.0562Z" fill="#BAC2D3"/>
  <path d="M22.6415 42.7373C22.5783 42.7379 22.5171 42.7149 22.47 42.6728C22.4229 42.6308 22.3931 42.5726 22.3866 42.5097C22.3801 42.4469 22.3973 42.3839 22.4348 42.333C22.4722 42.2821 22.5274 42.2471 22.5893 42.2347L34.0091 39.8074C34.0749 39.7947 34.1432 39.8082 34.1993 39.8449C34.2555 39.8816 34.2952 39.9387 34.31 40.0041C34.3171 40.0368 34.3176 40.0707 34.3115 40.1036C34.3054 40.1366 34.2929 40.168 34.2746 40.196C34.2563 40.2241 34.2326 40.2483 34.2049 40.2672C34.1773 40.286 34.1461 40.2992 34.1133 40.306L22.6985 42.7314C22.6798 42.7357 22.6607 42.7377 22.6415 42.7373Z" fill="#3A556A"/>
  <path d="M33.1189 63.9933L39.3299 72.8165L33.2753 96.6031L42.8755 106.553L52.6684 96.4251L46.01 73.0427L53.7061 62.0853L42.8942 57.98L33.1189 63.9933Z" fill="#D51181"/>
  <path d="M73.5882 43.3441L42.8943 57.98L53.8311 71.055C54.0821 71.3547 54.4407 71.5439 54.8297 71.5818C55.2188 71.6196 55.6072 71.5032 55.9113 71.2576L76.7817 54.3862L73.5882 43.3441Z" fill="#6CC282"/>
  <path d="M9.00586 54.3862L29.8782 71.2576C30.1823 71.5032 30.5707 71.6197 30.9598 71.5818C31.3488 71.5439 31.7074 71.3547 31.9584 71.055L42.8942 57.98L12.2653 43.4337L9.00586 54.3862Z" fill="#6CC282"/>
  <path d="M3.52678 84.8991C6.53243 88.0464 11.7264 89.1499 15.4471 86.8888C16.1212 86.5269 16.7066 86.0201 17.1612 85.4048C17.6158 84.7895 17.9282 84.081 18.0761 83.3304C18.44 80.4683 15.5848 78.3999 13.7623 76.1644C9.81347 71.3235 11.931 67.1651 13.1014 62.0242C13.8036 58.936 12.4011 59.5379 9.73086 61.0151C1.56956 65.5266 -3.94113 77.0712 3.52678 84.8991Z" fill="#8B8AAF"/>
  <path d="M15.4441 86.8878C11.7303 89.1499 6.52839 88.0513 3.52667 84.904C-3.62258 77.4105 1.11605 66.517 8.68329 61.6397C2.97884 67.115 0.31644 76.0975 6.4743 82.5622C7.84806 84.01 9.6197 85.0186 11.5659 85.4609C13.512 85.9032 15.5456 85.7594 17.4101 85.0476C16.8969 85.7971 16.2258 86.4252 15.4441 86.8878Z" fill="#77779C"/>
  <path d="M82.3523 84.8991C79.3466 88.0464 74.1536 89.1499 70.4319 86.8888C69.7589 86.5261 69.1744 86.019 68.7206 85.4038C68.2667 84.7886 67.9547 84.0805 67.8069 83.3304C67.444 80.4683 70.2982 78.3999 72.1216 76.1644C76.0695 71.3235 73.953 67.1651 72.7826 62.0242C72.0793 58.936 73.4818 59.5379 76.1521 61.0151C84.3105 65.5266 89.8212 77.0712 82.3523 84.8991Z" fill="#8B8AAF"/>
  <path d="M70.4348 86.8878C74.1486 89.1499 79.3505 88.0513 82.3522 84.904C89.5014 77.4105 84.7589 66.517 77.1956 61.6397C82.9 67.115 85.5624 76.0975 79.4046 82.5622C78.0308 84.01 76.2592 85.0186 74.313 85.4609C72.3669 85.9032 70.3333 85.7594 68.4688 85.0476C68.982 85.7971 69.653 86.4252 70.4348 86.8878Z" fill="#77779C"/>
  <path d="M32.2751 114.969C31.9018 116.026 31.2831 116.978 30.4699 117.749C29.6568 118.52 28.6723 119.087 27.5975 119.403C25.4367 120.021 23.1669 120.16 20.9469 119.81C17.7012 119.454 14.1438 118.426 12.5171 115.59C11.7501 114.159 11.458 112.521 11.683 110.912C11.776 111.829 12.0601 112.716 12.5171 113.516C14.1438 116.342 17.7032 117.369 20.9469 117.735C23.1673 118.076 25.4349 117.937 27.5975 117.329C28.672 117.009 29.6558 116.44 30.4687 115.668C31.2815 114.895 31.9005 113.942 32.2751 112.885C32.3368 112.672 32.3841 112.454 32.4167 112.234C32.5825 113.145 32.534 114.081 32.2751 114.969Z" fill="#77779C"/>
  <path d="M73.3561 115.59C71.7293 118.427 68.1699 119.454 64.9263 119.81C62.7098 120.16 60.4436 120.021 58.2865 119.403C57.2107 119.089 56.2252 118.523 55.4118 117.752C54.5983 116.981 53.9803 116.027 53.6088 114.969C53.3514 114.078 53.2992 113.139 53.4564 112.224C53.4967 112.438 53.5479 112.661 53.6088 112.885C53.9818 113.943 54.6003 114.897 55.4134 115.67C56.2265 116.442 57.2111 117.011 58.2865 117.329C60.4453 117.937 62.7094 118.075 64.9263 117.735C68.1719 117.369 71.7293 116.342 73.3561 113.516C73.815 112.713 74.0992 111.823 74.1901 110.903C74.426 112.514 74.1333 114.159 73.3561 115.59Z" fill="#77779C"/>
</svg>
