<svg xmlns="http://www.w3.org/2000/svg" width="20" height="20" viewBox="0 0 20 20" fill="none">
  <path d="M13.7507 0C10.2457 0 7.50073 1.6475 7.50073 3.75V5.90583C7.0974 5.85833 6.6799 5.83333 6.25073 5.83333C2.74573 5.83333 0.000732422 7.48083 0.000732422 9.58333V16.25C0.000732422 18.3525 2.74573 20 6.25073 20C9.0974 20 11.4432 18.9133 12.2232 17.3783C12.7207 17.4508 13.2291 17.5 13.7507 17.5C17.2557 17.5 20.0007 15.8525 20.0007 13.75V3.75C20.0007 1.6475 17.2557 0 13.7507 0ZM13.7507 1.66667C16.3741 1.66667 18.3341 2.76667 18.3341 3.75C18.3341 4.73333 16.3741 5.83333 13.7507 5.83333C11.1274 5.83333 9.1674 4.73333 9.1674 3.75C9.1674 2.76667 11.1274 1.66667 13.7507 1.66667ZM6.25073 7.5C8.87407 7.5 10.8341 8.6 10.8341 9.58333C10.8341 10.5667 8.87407 11.6667 6.25073 11.6667C3.6274 11.6667 1.6674 10.5667 1.6674 9.58333C1.6674 8.6 3.6274 7.5 6.25073 7.5ZM1.6674 12.1517C2.80073 12.8808 4.4199 13.3333 6.25073 13.3333C8.08157 13.3333 9.70073 12.8808 10.8341 12.1517V12.9167C10.8341 13.9 8.87407 15 6.25073 15C3.6274 15 1.6674 13.9 1.6674 12.9167V12.1517ZM6.25073 18.3333C3.6274 18.3333 1.6674 17.2333 1.6674 16.25V15.485C2.80073 16.2142 4.4199 16.6667 6.25073 16.6667C8.08157 16.6667 9.70073 16.2142 10.8341 15.485V16.25C10.8341 17.2333 8.87407 18.3333 6.25073 18.3333ZM13.7507 15.8333C13.3224 15.8333 12.9074 15.7942 12.5007 15.7367V14.0867C12.9107 14.135 13.3257 14.1667 13.7507 14.1667C15.5816 14.1667 17.2007 13.7142 18.3341 12.985V13.75C18.3341 14.7333 16.3741 15.8333 13.7507 15.8333ZM13.7507 12.5C13.3224 12.5 12.9074 12.4608 12.5007 12.4033V10.7533C12.9107 10.8017 13.3257 10.8333 13.7507 10.8333C15.5816 10.8333 17.2007 10.3808 18.3341 9.65167V10.4167C18.3341 11.4 16.3741 12.5 13.7507 12.5ZM13.7507 9.16667C13.2991 9.16667 12.8624 9.12417 12.4357 9.06083C12.2707 8.32167 11.7616 7.6575 11.0016 7.12667C11.8282 7.36417 12.7566 7.50083 13.7507 7.50083C15.5816 7.50083 17.2007 7.04833 18.3341 6.31917V7.08417C18.3341 8.0675 16.3741 9.1675 13.7507 9.1675V9.16667Z"/>
</svg>
