
<svg xmlns="http://www.w3.org/2000/svg" width="125" height="120" viewBox="0 0 125 120" fill="none">
  <path d="M20.364 27.3697C20.2533 27.2284 20.115 27.1111 19.9576 27.025C19.8001 26.9389 19.6267 26.8857 19.4481 26.8688C19.2694 26.8519 19.0891 26.8715 18.9183 26.9265C18.7475 26.9815 18.5896 27.0707 18.4544 27.1887L0.454417 42.8916C0.320744 43.0079 0.211802 43.1498 0.134065 43.309C0.056328 43.4682 0.0113815 43.6414 0.00189622 43.8183C-0.00758906 43.9952 0.0185803 44.1722 0.0788496 44.3388C0.139119 44.5053 0.232258 44.6581 0.352734 44.788L17.3786 63.4021L19.2373 65.4897L29.8836 40.924L20.364 27.3697Z" fill="#FECA36"/>
  <path d="M123.603 42.9923L105.605 27.2893C105.47 27.1713 105.312 27.0821 105.141 27.0271C104.97 26.9722 104.79 26.9525 104.611 26.9695C104.433 26.9864 104.259 27.0395 104.102 27.1256C103.944 27.2118 103.806 27.329 103.695 27.4703L93.4487 42.1025L104.221 66.0631L123.702 44.8886C123.822 44.759 123.916 44.6063 123.976 44.4399C124.037 44.2734 124.063 44.0965 124.054 43.9196C124.045 43.7427 124 43.5694 123.922 43.4101C123.845 43.2508 123.736 43.1087 123.603 42.9923Z" fill="#FECA36"/>
  <path d="M106.676 63.4021H17.3787L28.8689 39.4364H95.1856L106.676 63.4021Z" fill="#DD8B12"/>
  <path d="M95.1836 39.4293H28.8699L17.3787 63.4021H17.6502L25.0283 48.0154H91.342L98.7201 63.4021H106.675L95.1836 39.4293Z" fill="#EF9E1D"/>
  <path d="M100.335 26.0457C99.882 23.0579 98.8485 20.1876 97.2926 17.5969C96.4954 16.4394 95.434 15.4883 94.1963 14.8224C92.9585 14.1565 91.58 13.7949 90.1748 13.7675C88.3085 13.7238 86.4791 14.292 84.9658 15.3853C83.4526 16.4786 82.3387 18.037 81.7941 19.8227C81.0122 23.0522 83.0885 26.5623 84.4694 29.5843C91.3259 44.5968 83.4027 58.2834 77.4258 59.7842L77.9861 65.4408C95.4827 58.8802 102.124 35.3914 100.335 26.0457Z" fill="#8B8AAF"/>
  <path d="M77.9826 65.4389L77.6572 62.124C93.9265 54.7418 100.089 32.4528 98.3599 23.403C97.9578 20.84 97.1476 18.358 95.9602 16.0513C96.4727 16.5033 96.9209 17.0233 97.2922 17.5969C98.8524 20.1858 99.8857 23.0574 100.333 26.0468C102.122 35.3915 95.4823 58.8803 77.9826 65.4389Z" fill="#77779C"/>
  <path d="M48.2273 8.36407L39.2171 0.299573C39.0503 0.150445 38.8444 0.0519479 38.6236 0.01562C38.4028 -0.0207079 38.1762 0.00663738 37.9704 0.0944529C37.7645 0.182268 37.588 0.326917 37.4614 0.511457C37.3348 0.695996 37.2635 0.912783 37.2557 1.13643L36.7676 15.5032L48.2273 8.36407Z" fill="#77779C"/>
  <path d="M62.8584 8.36407L71.8685 0.299573C72.0354 0.150445 72.2413 0.0519479 72.4621 0.01562C72.6829 -0.0207079 72.9095 0.00663738 73.1153 0.0944529C73.3211 0.182268 73.4977 0.326917 73.6243 0.511457C73.7508 0.695996 73.8222 0.912783 73.83 1.13643L74.3181 15.5032L62.8584 8.36407Z" fill="#77779C"/>
  <path d="M64.3677 9.16838L70.611 3.58191C70.7263 3.47776 70.869 3.40879 71.0222 3.38316C71.1754 3.35753 71.3327 3.3763 71.4756 3.43726C71.6185 3.49822 71.7409 3.59882 71.8285 3.72716C71.916 3.85551 71.9649 4.00623 71.9695 4.1615L72.3081 14.1153L64.3677 9.16838Z" fill="#F28B91"/>
  <path d="M46.4713 9.16838L40.2249 3.58191C40.1097 3.47776 39.967 3.40879 39.8138 3.38316C39.6606 3.35753 39.5032 3.3763 39.3603 3.43726C39.2174 3.49822 39.095 3.59882 39.0075 3.72716C38.92 3.85551 38.871 4.00623 38.8664 4.1615L38.5278 14.1153L46.4713 9.16838Z" fill="#F28B91"/>
  <path d="M79.4482 27.1256C79.4482 15.2998 68.745 5.71417 55.5435 5.71417C42.342 5.71417 31.6378 15.2998 31.6378 27.1256C31.6378 31.8671 20.9092 61.4945 20.9092 72.701C20.9092 91.9313 38.1475 98.8946 55.5435 98.8946C72.9394 98.8946 90.1768 91.9313 90.1768 72.701C90.1768 61.4966 79.4482 31.8671 79.4482 27.1256Z" fill="#8B8AAF"/>
  <path d="M70.5172 50.6083C70.4337 50.3197 70.2913 50.0515 70.0989 49.8206C69.9065 49.5898 69.6684 49.4013 69.3996 49.2671C69.1307 49.1329 68.837 49.0558 68.5369 49.0408C68.2368 49.0257 67.9368 49.073 67.6559 49.1797C59.4195 52.2688 51.3561 52.4458 43.4848 49.2865C43.201 49.1686 42.8955 49.1119 42.5883 49.1199C42.2811 49.1279 41.979 49.2005 41.7018 49.333C41.4245 49.4654 41.1782 49.6548 40.9789 49.8887C40.7796 50.1226 40.6318 50.3959 40.5451 50.6907C38.786 56.8273 36.7676 64.2959 36.7676 67.6484C36.7676 72.0045 38.365 75.055 41.7948 77.2473C45.0832 79.3491 49.965 80.5062 55.5434 80.5062C61.1217 80.5062 66.0035 79.3491 69.2909 77.2473C72.7207 75.055 74.3182 72.0045 74.3182 67.6484C74.3182 64.2807 72.2825 56.7602 70.5172 50.6083Z" fill="#F1F2F2"/>
  <path d="M64.8955 24.9211C66.8643 24.4557 68.083 22.4825 67.6176 20.5137C67.1522 18.545 65.179 17.3263 63.2102 17.7916C61.2415 18.257 60.0228 20.2303 60.4881 22.199C60.9535 24.1677 62.9268 25.3865 64.8955 24.9211Z" fill="white"/>
  <path d="M64.3009 22.4055C64.8802 22.2685 65.2389 21.6879 65.1019 21.1086C64.965 20.5293 64.3843 20.1707 63.805 20.3076C63.2257 20.4445 62.8671 21.0252 63.0041 21.6045C63.141 22.1838 63.7216 22.5424 64.3009 22.4055Z" fill="#3A556A"/>
  <path d="M47.8589 24.9247C49.8276 24.4593 51.0464 22.4861 50.581 20.5173C50.1156 18.5486 48.1424 17.3299 46.1736 17.7952C44.2049 18.2606 42.9861 20.2339 43.4515 22.2026C43.9169 24.1713 45.8901 25.3901 47.8589 24.9247Z" fill="white"/>
  <path d="M47.2646 22.4091C47.8439 22.2721 48.2025 21.6915 48.0655 21.1122C47.9286 20.5329 47.348 20.1743 46.7687 20.3112C46.1894 20.4481 45.8307 21.0288 45.9677 21.6081C46.1046 22.1874 46.6853 22.546 47.2646 22.4091Z" fill="#3A556A"/>
  <path d="M56.6997 30.2178H54.3864C53.9907 30.2179 53.6026 30.3261 53.2639 30.5308C52.9253 30.7354 52.649 31.0287 52.4649 31.379C52.2809 31.7293 52.1961 32.1233 52.2197 32.5182C52.2433 32.9132 52.3744 33.2943 52.5988 33.6202L53.756 35.2989C53.9555 35.5886 54.2224 35.8254 54.5337 35.989C54.845 36.1526 55.1914 36.2381 55.5431 36.2381C55.8948 36.2381 56.2412 36.1526 56.5525 35.989C56.8638 35.8254 57.1307 35.5886 57.3302 35.2989L58.4873 33.6202C58.7118 33.2943 58.8429 32.9132 58.8665 32.5182C58.8901 32.1233 58.8053 31.7293 58.6212 31.379C58.4372 31.0287 58.1609 30.7354 57.8222 30.5308C57.4836 30.3261 57.0954 30.2179 56.6997 30.2178Z" fill="#3A556A"/>
  <path d="M55.5433 41.164C53.1072 41.1041 50.7497 40.2902 48.7956 38.8344C48.7425 38.8046 48.6962 38.764 48.6598 38.7152C48.6234 38.6665 48.5975 38.6106 48.584 38.5513C48.5704 38.4919 48.5694 38.4304 48.5811 38.3706C48.5927 38.3109 48.6167 38.2542 48.6516 38.2043C48.6865 38.1544 48.7314 38.1123 48.7835 38.0808C48.8356 38.0493 48.8937 38.0291 48.9541 38.0214C49.0145 38.0137 49.0759 38.0187 49.1342 38.0362C49.1925 38.0536 49.2465 38.0831 49.2928 38.1226C53.4974 41.0399 57.5881 41.0399 61.7927 38.1226C61.8872 38.0696 61.9979 38.0536 62.1035 38.0777C62.2091 38.1018 62.3019 38.1644 62.364 38.2532C62.426 38.3419 62.4528 38.4506 62.4391 38.5581C62.4254 38.6655 62.3723 38.764 62.29 38.8344C60.3362 40.2902 57.979 41.1041 55.5433 41.164Z" fill="#3A556A"/>
  <path d="M63.1636 32.1915L72.9547 29.2529L63.1636 32.1915Z" fill="#BAC2D3"/>
  <path d="M63.1623 32.4091C63.11 32.409 63.0596 32.3901 63.0202 32.3559C62.9807 32.3217 62.9549 32.2745 62.9473 32.2228C62.9398 32.1711 62.9511 32.1185 62.9792 32.0745C63.0073 32.0305 63.0502 31.998 63.1002 31.983L72.8923 29.0444C72.9204 29.0338 72.9503 29.0292 72.9802 29.0307C73.0101 29.0323 73.0394 29.0399 73.0662 29.0532C73.0931 29.0666 73.1169 29.0853 73.1362 29.1082C73.1555 29.1311 73.1699 29.1577 73.1785 29.1864C73.1871 29.2151 73.1897 29.2453 73.1861 29.275C73.1826 29.3048 73.173 29.3334 73.1578 29.3593C73.1427 29.3852 73.1225 29.4077 73.0983 29.4254C73.0742 29.4431 73.0466 29.4557 73.0174 29.4623L63.2253 32.3999C63.2048 32.406 63.1836 32.4091 63.1623 32.4091Z" fill="#3A556A"/>
  <path d="M63.1636 33.2297L74.1413 32.9012L63.1636 33.2297Z" fill="#BAC2D3"/>
  <path d="M63.1627 33.4473C63.1073 33.4443 63.0551 33.4205 63.0166 33.3805C62.9782 33.3406 62.9564 33.2875 62.9556 33.232C62.9548 33.1766 62.9751 33.1229 63.0125 33.0819C63.0498 33.0408 63.1013 33.0155 63.1566 33.0111L74.1383 32.6826C74.1957 32.683 74.2508 32.7052 74.2926 32.7446C74.3343 32.7841 74.3595 32.8378 74.3631 32.8951C74.3639 32.9237 74.359 32.9522 74.3488 32.9789C74.3387 33.0056 74.3233 33.03 74.3037 33.0508C74.284 33.0716 74.2605 33.0883 74.2344 33.1C74.2083 33.1116 74.1801 33.118 74.1516 33.1188L63.1698 33.4473H63.1627Z" fill="#3A556A"/>
  <path d="M63.1636 34.3665L72.9547 36.449L63.1636 34.3665Z" fill="#BAC2D3"/>
  <path d="M72.9555 36.6665C72.9403 36.668 72.9249 36.668 72.9097 36.6665L63.1176 34.578C63.0896 34.572 63.0631 34.5607 63.0395 34.5445C63.0159 34.5283 62.9958 34.5076 62.9802 34.4836C62.9646 34.4596 62.9539 34.4328 62.9487 34.4047C62.9435 34.3765 62.9439 34.3477 62.9499 34.3197C62.9628 34.2636 62.9969 34.2148 63.045 34.1833C63.0932 34.1518 63.1516 34.1402 63.2081 34.1509L73.0002 36.2334C73.0535 36.2438 73.101 36.2738 73.1334 36.3175C73.1657 36.3611 73.1805 36.4153 73.1749 36.4694C73.1693 36.5234 73.1437 36.5734 73.103 36.6095C73.0624 36.6456 73.0098 36.6652 72.9555 36.6645V36.6665Z" fill="#3A556A"/>
  <path d="M47.9222 32.1915L38.1311 29.2529L47.9222 32.1915Z" fill="#BAC2D3"/>
  <path d="M47.9221 32.4091C47.9011 32.409 47.8802 32.4059 47.8601 32.3999L38.068 29.4623C38.0388 29.4557 38.0112 29.4431 37.9871 29.4254C37.9629 29.4077 37.9426 29.3852 37.9275 29.3593C37.9124 29.3334 37.9028 29.3048 37.8992 29.275C37.8957 29.2453 37.8983 29.2151 37.9069 29.1864C37.9155 29.1577 37.9299 29.1311 37.9492 29.1082C37.9685 29.0853 37.9923 29.0666 38.0191 29.0532C38.046 29.0399 38.0753 29.0323 38.1052 29.0307C38.1351 29.0292 38.165 29.0338 38.1931 29.0444L47.9852 31.983C48.0352 31.998 48.0783 32.0306 48.1063 32.0747C48.1344 32.1188 48.1456 32.1716 48.138 32.2233C48.1303 32.275 48.1043 32.3223 48.0646 32.3564C48.025 32.3905 47.9744 32.4092 47.9221 32.4091Z" fill="#3A556A"/>
  <path d="M47.9223 33.2297L36.9446 32.9012L47.9223 33.2297Z" fill="#BAC2D3"/>
  <path d="M47.9224 33.4473H47.9163L36.9345 33.1189C36.9059 33.1181 36.8778 33.1117 36.8517 33.1C36.8256 33.0883 36.802 33.0716 36.7824 33.0508C36.7627 33.0301 36.7474 33.0056 36.7372 32.9789C36.727 32.9522 36.7222 32.9237 36.723 32.8952C36.7254 32.8374 36.7502 32.7829 36.7922 32.7432C36.8341 32.7035 36.8899 32.6818 36.9477 32.6826L47.9295 33.0111C47.9848 33.0157 48.0363 33.0411 48.0735 33.0822C48.1107 33.1233 48.131 33.177 48.1301 33.2325C48.1291 33.288 48.1072 33.341 48.0686 33.3809C48.0301 33.4208 47.9778 33.4445 47.9224 33.4473Z" fill="#3A556A"/>
  <path d="M47.9222 34.3665L38.1311 36.449L47.9222 34.3665Z" fill="#BAC2D3"/>
  <path d="M38.1332 36.6666C38.0788 36.6673 38.0262 36.6477 37.9856 36.6116C37.945 36.5755 37.9194 36.5255 37.9138 36.4714C37.9082 36.4174 37.923 36.3632 37.9553 36.3195C37.9876 36.2759 38.0351 36.2459 38.0884 36.2354L47.8805 34.153C47.9371 34.142 47.9956 34.1535 48.0438 34.185C48.092 34.2165 48.1261 34.2656 48.1388 34.3217C48.1448 34.3497 48.1451 34.3786 48.1399 34.4067C48.1347 34.4349 48.124 34.4617 48.1085 34.4857C48.0929 34.5097 48.0727 34.5303 48.0491 34.5465C48.0255 34.5627 47.999 34.5741 47.971 34.58L38.1789 36.6625C38.1638 36.6654 38.1485 36.6667 38.1332 36.6666Z" fill="#3A556A"/>
  <path d="M17.3787 63.4021V116.922C17.3787 117.326 17.4583 117.726 17.613 118.1C17.7676 118.473 17.9944 118.813 18.2802 119.098C18.566 119.384 18.9053 119.611 19.2787 119.766C19.6522 119.92 20.0524 120 20.4566 120H103.598C104.414 120 105.197 119.676 105.774 119.098C106.352 118.521 106.676 117.738 106.676 116.922V63.4021H17.3787Z" fill="#FECA36"/>
  <path d="M114.026 80.1605L106.676 63.4021H17.3786L10.0279 80.1605C9.9339 80.3745 9.89472 80.6085 9.91394 80.8414C9.93315 81.0743 10.0101 81.2987 10.138 81.4944C10.2658 81.6901 10.4404 81.8507 10.6459 81.9619C10.8515 82.0731 11.0815 82.1313 11.3152 82.1311H112.739C112.973 82.131 113.203 82.0727 113.408 81.9614C113.613 81.8502 113.788 81.6895 113.916 81.4939C114.043 81.2984 114.12 81.074 114.14 80.8412C114.159 80.6084 114.12 80.3745 114.026 80.1605Z" fill="#FFB900"/>
  <path d="M43.1521 57.8096H36.1685C34.6931 57.8005 33.2653 58.3308 32.1534 59.3005C31.0415 60.2703 30.3221 61.6128 30.1305 63.0757C30.0364 63.8659 29.9973 64.6616 30.0136 65.4571C30.1254 71.2927 34.5609 77.0816 40.5124 77.4883C41.8019 77.6145 43.0971 77.3141 44.1994 76.6332C47.5295 74.4236 46.5381 69.8427 46.7628 66.0581C46.8136 65.0914 46.9639 64.1326 47.2113 63.1967C47.3885 62.5682 47.4181 61.9073 47.2977 61.2655C47.1773 60.6237 46.9102 60.0184 46.5172 59.4968C46.1243 58.9753 45.6161 58.5516 45.0323 58.259C44.4486 57.9663 43.8051 57.8125 43.1521 57.8096Z" fill="#8B8AAF"/>
  <path d="M67.9332 57.8096H74.9168C76.3922 57.8005 77.82 58.3308 78.9319 59.3005C80.0438 60.2703 80.7632 61.6128 80.9548 63.0757C81.0494 63.8658 81.0885 64.6616 81.0717 65.4572C80.9599 71.2927 76.5244 77.0816 70.5699 77.4883C69.2804 77.6144 67.9852 77.314 66.8828 76.6332C63.5527 74.4236 64.5441 69.8427 64.3194 66.0581C64.2686 65.0914 64.1184 64.1326 63.871 63.1967C63.6937 62.568 63.6641 61.9068 63.7847 61.2647C63.9053 60.6227 64.1726 60.0172 64.5659 59.4956C64.9593 58.974 65.4679 58.5504 66.052 58.2579C66.6361 57.9655 67.28 57.812 67.9332 57.8096Z" fill="#8B8AAF"/>
  <path d="M46.7254 67.9199C46.7458 71.2449 47 74.7835 44.2037 76.6341C43.1003 77.3159 41.8033 77.616 40.5126 77.4883C34.5641 77.0816 30.1206 71.2958 30.0189 65.4592C30.003 64.8349 30.0234 64.2101 30.0799 63.5882C30.6493 69.0689 34.9099 74.2141 40.5126 74.6005C41.8037 74.7332 43.1022 74.4327 44.2037 73.7463C46.1967 72.4245 46.6441 70.2586 46.7254 67.9199Z" fill="#77779C"/>
  <path d="M81.0742 65.4592C80.9623 71.2958 76.5289 77.0815 70.5703 77.4883C69.2828 77.616 67.9891 77.3158 66.8894 76.6341C64.0626 74.7632 64.3371 71.1941 64.3575 67.8487C64.4388 70.2179 64.876 72.4143 66.8894 73.7463C67.9872 74.4326 69.2825 74.7331 70.5703 74.6005C76.1527 74.2141 80.4031 69.1096 81.003 63.6594C81.0628 64.2573 81.0866 64.8583 81.0742 65.4592Z" fill="#77779C"/>
</svg>
